<svg width="106" height="106" viewBox="0 0 106 106" fill="none" xmlns="http://www.w3.org/2000/svg">
<path d="M45.72 1.44807C50.3813 -0.482696 55.6187 -0.482693 60.28 1.44808L84.305 11.3996C88.9663 13.3303 92.6697 17.0337 94.6004 21.695L104.552 45.72C106.483 50.3813 106.483 55.6187 104.552 60.28L94.6004 84.305C92.6697 88.9663 88.9663 92.6697 84.305 94.6004L60.28 104.552C55.6187 106.483 50.3813 106.483 45.72 104.552L21.695 94.6004C17.0337 92.6697 13.3303 88.9663 11.3996 84.305L1.44808 60.28C-0.482692 55.6187 -0.482689 50.3813 1.44808 45.72L11.3996 21.695C13.3303 17.0337 17.0337 13.3303 21.695 11.3996L45.72 1.44807Z" fill="#E5F1EA"/>
<path d="M45.72 9.90814C50.3813 7.97737 55.6187 7.97737 60.28 9.90814L78.3228 17.3817C82.9841 19.3125 86.6875 23.0159 88.6183 27.6772L96.0919 45.72C98.0226 50.3813 98.0226 55.6187 96.0919 60.28L88.6183 78.3228C86.6875 82.9841 82.9841 86.6875 78.3228 88.6183L60.28 96.0919C55.6187 98.0226 50.3813 98.0226 45.72 96.0919L27.6772 88.6183C23.0159 86.6875 19.3125 82.9841 17.3817 78.3228L9.90814 60.28C7.97737 55.6187 7.97737 50.3813 9.90814 45.72L17.3817 27.6772C19.3125 23.0159 23.0159 19.3125 27.6772 17.3817L45.72 9.90814Z" fill="#6FB489"/>
<path fill-rule="evenodd" clip-rule="evenodd" d="M42.2493 49.4176C39.6614 46.5019 35.5204 50.945 38.2379 53.7218C41.6022 57.4706 44.9668 61.3581 48.4603 64.9675C50.0131 66.4949 51.1777 66.4949 52.6009 64.9675L72.0664 43.9099C74.6543 40.9942 70.4886 37.1673 67.7714 40.0831L50.6602 58.303L42.2493 49.4176Z" fill="white"/>
</svg>
