<svg width="17" height="18" viewBox="0 0 17 18" fill="none" xmlns="http://www.w3.org/2000/svg">
<path d="M12.1632 7.25479C12.954 7.25479 13.6087 6.6002 13.6087 5.80934C13.6087 5.01833 12.9541 4.36389 12.1632 4.36389C11.3724 4.36389 10.7178 5.01848 10.7178 5.80934C10.7178 6.6002 11.3722 7.25479 12.1632 7.25479ZM12.1632 5.45475C12.3542 5.45475 12.5178 5.61835 12.5178 5.80935C12.5178 6.00034 12.3542 6.16395 12.1632 6.16395C11.9722 6.16395 11.8086 6.00034 11.8086 5.80935C11.8086 5.61835 11.9722 5.45475 12.1632 5.45475Z" fill="#838080"/>
<path d="M2.83712 9.73645C2.83712 10.5273 3.49171 11.1819 4.28257 11.1819C5.07342 11.1819 5.72802 10.5273 5.72802 9.73645C5.72802 8.94564 5.07342 8.291 4.28257 8.291C3.49156 8.291 2.83712 8.94544 2.83712 9.73645ZM4.28257 10.0909C4.09156 10.0909 3.92796 9.92725 3.92796 9.73626C3.92796 9.54526 4.09157 9.38165 4.28257 9.38165C4.47356 9.38165 4.63717 9.54526 4.63717 9.73626C4.63698 9.92726 4.47337 10.0909 4.28257 10.0909Z" fill="#838080"/>
<path d="M8.23636 11.1821C9.02717 11.1821 9.68181 10.5275 9.68181 9.73665C9.68181 8.94584 9.02722 8.2912 8.23636 8.2912C7.4455 8.2912 6.79091 8.94579 6.79091 9.73665C6.79091 10.5275 7.41813 11.1821 8.23636 11.1821ZM8.23636 9.38205C8.42736 9.38205 8.59096 9.54566 8.59096 9.73666C8.59096 9.92747 8.42736 10.0911 8.23636 10.0911C8.04536 10.0911 7.88176 9.92746 7.88176 9.73647C7.88176 9.54565 8.04536 9.38205 8.23636 9.38205Z" fill="#838080"/>
<path d="M12.1631 11.1821C12.9539 11.1821 13.6086 10.5275 13.6086 9.73665C13.6086 8.94584 12.954 8.2912 12.1631 8.2912C11.3722 8.2912 10.7177 8.94579 10.7177 9.73665C10.7177 10.5275 11.3721 11.1821 12.1631 11.1821ZM12.1631 9.38205C12.3541 9.38205 12.5177 9.54566 12.5177 9.73666C12.5177 9.92747 12.3539 10.0911 12.1631 10.0911C11.9721 10.0911 11.8085 9.92746 11.8085 9.73647C11.8085 9.54565 11.9721 9.38205 12.1631 9.38205Z" fill="#838080"/>
<path d="M4.28257 12.2455C3.49176 12.2455 2.83712 12.9001 2.83712 13.691C2.83712 14.4818 3.49171 15.1364 4.28257 15.1364C5.07342 15.1364 5.72802 14.4818 5.72802 13.691C5.72802 12.9 5.07342 12.2455 4.28257 12.2455ZM4.28257 14.0456C4.09156 14.0456 3.92796 13.882 3.92796 13.691C3.92796 13.5 4.09157 13.3364 4.28257 13.3364C4.47356 13.3364 4.63717 13.5 4.63717 13.691C4.63698 13.8818 4.47337 14.0456 4.28257 14.0456Z" fill="#838080"/>
<path d="M8.23612 15.1364C9.02692 15.1364 9.68156 14.4818 9.68156 13.691C9.68156 12.9002 9.02697 12.2455 8.23612 12.2455C7.44526 12.2455 6.79067 12.9001 6.79067 13.691C6.79067 14.4818 7.41789 15.1364 8.23612 15.1364ZM8.23612 13.3364C8.42712 13.3364 8.59072 13.5 8.59072 13.691C8.59072 13.882 8.42711 14.0456 8.23612 14.0456C8.04512 14.0456 7.88151 13.882 7.88151 13.691C7.88151 13.5 8.04512 13.3364 8.23612 13.3364Z" fill="#838080"/>
<path d="M4.96372 0.54555V1.47277H4.0909C1.82727 1.47277 0 3.30004 0 5.56367V13.9091C0 16.1727 1.82727 18 4.0909 18H12.4091C14.6727 18 16.4999 16.1727 16.4999 13.9091V5.59094C16.4999 3.32731 14.6727 1.50004 12.4091 1.50004H11.5091V0.545404C11.5091 0.245396 11.2636 0 10.9637 0C10.6637 0 10.4182 0.24541 10.4182 0.545404V1.47263H8.78179V0.545404C8.78179 0.245396 8.53638 0 8.23639 0C7.93639 0 7.69098 0.24541 7.69098 0.545404V1.47263H6.05453V0.545404C6.05453 0.245396 5.80912 0 5.50912 0C5.20913 0 4.96372 0.24541 4.96372 0.545404V0.54555ZM5.50912 4.06382C5.80913 4.06382 6.05453 3.81841 6.05453 3.51841V2.59119H7.69098V3.51841C7.69098 3.81842 7.93639 4.06382 8.23639 4.06382C8.53638 4.06382 8.78179 3.81841 8.78179 3.51841V2.59119H10.4182V3.51841C10.4182 3.81842 10.6637 4.06382 10.9637 4.06382C11.2636 4.06382 11.5091 3.81841 11.5091 3.51841V2.59119H12.4091C14.0727 2.59119 15.4091 3.9276 15.4091 5.59128V13.9094C15.4091 15.5731 14.0727 16.9095 12.4091 16.9095L4.0909 16.9093C2.42726 16.9093 1.09081 15.5729 1.09081 13.9092L1.091 5.59109C1.091 3.92746 2.42741 2.591 4.09109 2.591H4.96371V3.51822C4.96371 3.81842 5.20913 4.06382 5.50912 4.06382Z" fill="#838080"/>
</svg>
