<svg width="13" height="13" viewBox="0 0 13 13" fill="none" xmlns="http://www.w3.org/2000/svg">
<path d="M6.5 0C8.22389 0 9.87711 0.684814 11.0962 1.9038C12.3152 3.12286 13 4.77629 13 6.5C13 8.22371 12.3152 9.87711 11.0962 11.0962C9.87714 12.3152 8.22371 13 6.5 13C4.77629 13 3.12289 12.3152 1.9038 11.0962C0.68484 9.87714 0 8.22371 0 6.5C0.00186539 4.77664 0.687201 3.12448 1.90587 1.90592C3.12443 0.687255 4.77677 0.00191019 6.49995 5.30325e-05L6.5 0ZM6.5 12.0715C7.97763 12.0715 9.39478 11.4845 10.4396 10.4397C11.4844 9.39481 12.0714 7.97769 12.0714 6.50011C12.0714 5.02253 11.4844 3.60533 10.4396 2.56054C9.3947 1.51568 7.97758 0.928685 6.5 0.928685C5.02242 0.928685 3.60522 1.51568 2.56044 2.56054C1.51557 3.60541 0.928579 5.02253 0.928579 6.50011C0.930134 7.97724 1.51764 9.39329 2.56219 10.4381C3.60673 11.4826 5.02292 12.0701 6.50016 12.0717L6.5 12.0715Z" fill="#408FAD"/>
<path d="M6.50005 3.25001C6.62317 3.25001 6.74131 3.29893 6.82837 3.38598C6.91542 3.47303 6.96434 3.59118 6.96434 3.7143V6.28789L8.66085 7.75362C8.75785 7.833 8.81859 7.94824 8.82937 8.07313C8.84014 8.19801 8.79993 8.32185 8.71796 8.41668C8.63598 8.5115 8.51908 8.56912 8.39399 8.57638C8.2688 8.58374 8.14609 8.54021 8.05355 8.45564L6.19639 6.84917C6.09493 6.7615 6.03637 6.63413 6.03575 6.50003V3.71429C6.03575 3.59117 6.08467 3.47302 6.17172 3.38597C6.25877 3.29892 6.37693 3.25001 6.50005 3.25001Z" fill="#408FAD"/>
</svg>
