<svg width="11" height="9" viewBox="0 0 11 9" fill="none" xmlns="http://www.w3.org/2000/svg">
<path d="M11 1.06537C10.5956 1.24634 10.1604 1.36841 9.70379 1.42304C10.17 1.14203 10.5275 0.696908 10.6961 0.165909C10.26 0.426463 9.77726 0.615527 9.26302 0.71759C8.85149 0.276065 8.2649 0 7.6158 0C6.36961 0 5.35921 1.01726 5.35921 2.27214C5.35921 2.44997 5.37909 2.6233 5.41772 2.78988C3.54207 2.69501 1.879 1.7906 0.765889 0.415896C0.571626 0.751311 0.460427 1.14158 0.460427 1.55838C0.460427 2.34656 0.858778 3.04211 1.46434 3.44947C1.09457 3.43755 0.746463 3.33527 0.442117 3.16508C0.441893 3.17453 0.441894 3.18419 0.441894 3.19386C0.441894 4.29452 1.21984 5.21264 2.25234 5.42172C2.06299 5.47342 1.86359 5.5013 1.65771 5.5013C1.51213 5.5013 1.37079 5.48714 1.23301 5.46038C1.52039 6.36299 2.35371 7.02011 3.34111 7.03832C2.56874 7.64777 1.59586 8.01107 0.538355 8.01107C0.356373 8.01107 0.176623 8.00027 0 7.97914C0.999005 8.62412 2.18513 9 3.45945 9C7.61066 9 9.88042 5.53794 9.88042 2.53539C9.88042 2.43693 9.87841 2.33869 9.87416 2.24112C10.3149 1.92144 10.6977 1.52106 11 1.06537Z" fill="#163B61"/>
</svg>
