<svg width="18" height="21" viewBox="0 0 18 21" fill="none" xmlns="http://www.w3.org/2000/svg">
<path d="M14.2828 11.1591C14.2563 8.49902 16.452 7.2232 16.5502 7.15875C15.3162 5.35449 13.3937 5.10693 12.7095 5.07876C11.0747 4.91272 9.51797 6.04171 8.68862 6.04171C7.86098 6.04171 6.57961 5.10309 5.22397 5.12699C3.44063 5.15345 1.79687 6.16421 0.879165 7.76059C-0.972893 10.9734 0.405373 15.7348 2.21005 18.3424C3.09233 19.6169 4.14449 21.0511 5.52489 20.9986C6.85535 20.9461 7.35731 20.1381 8.96564 20.1381C10.574 20.1381 11.0256 20.9986 12.4329 20.9717C13.8636 20.9457 14.7707 19.6728 15.6457 18.3932C16.6586 16.9125 17.0756 15.4787 17.1004 15.4061C17.0692 15.3916 14.3114 14.3352 14.2828 11.1591Z" fill="#163B61"/>
<path d="M11.6384 3.35283C12.3704 2.46415 12.8664 1.2293 12.7315 0C11.6751 0.042684 10.3963 0.702151 9.63776 1.58998C8.95823 2.37792 8.36407 3.63241 8.52328 4.83951C9.70178 4.93085 10.9038 4.2398 11.6384 3.35283Z" fill="#163B61"/>
</svg>
