<svg width="94" height="118" viewBox="0 0 94 118" fill="none" xmlns="http://www.w3.org/2000/svg">
<rect x="-1.50834" y="17.6775" width="60.0126" height="68.6722" rx="29.9775" transform="rotate(-18.6445 -1.50834 17.6775)" stroke="#163B61" stroke-width="13"/>
<path d="M3.18467 68.2226C1.61326 63.5029 4.16551 58.4029 8.88528 56.8315L71.9995 35.8181C76.7193 34.2466 81.8193 36.7989 83.3907 41.5187L91.9823 67.3239C98.0934 85.6785 88.168 105.512 69.8133 111.623L56.0754 116.197C37.7207 122.308 17.8874 112.383 11.7763 94.0279L3.18467 68.2226Z" fill="#408FAD"/>
<circle cx="48.6399" cy="68.3895" r="7.46275" transform="rotate(5.08688 48.6399 68.3895)" fill="white"/>
<path d="M50.6198 88.2329L48.2265 73.0354L53.0378 71.5906L60.2424 85.3434L50.6198 88.2329Z" fill="white"/>
</svg>
