<svg width="23" height="20" viewBox="0 0 23 20" fill="none" xmlns="http://www.w3.org/2000/svg">
<path d="M21.2978 18.8214C21.2978 19.47 20.7652 20 20.1148 20L2.90996 19.9998C2.25862 19.9998 1.72624 19.47 1.72624 18.8212V18.3941C1.72624 17.7463 2.25861 17.2153 2.90996 17.2153H20.1148C20.7652 17.2153 21.2978 17.7463 21.2978 18.3941V18.8214ZM21.6867 5.13116C21.7619 4.48735 21.5016 4.38315 21.1093 4.90006L17.1192 10.1558C16.7263 10.6721 16.1358 10.6376 15.8049 10.0786L12.1119 3.81619C11.7816 3.25741 11.2676 3.27131 10.9679 3.84671L7.7454 10.0493C7.44636 10.6247 6.86012 10.6887 6.44228 10.1929L1.96167 4.86428C1.54322 4.36737 1.26277 4.48776 1.33781 5.13157L2.52131 15.3213C2.59697 15.9648 3.19062 16.491 3.84132 16.491H19.1823C19.833 16.491 20.4273 15.9649 20.5017 15.3213L21.6867 5.13116ZM11.5007 0C10.895 0 10.4045 0.488703 10.4045 1.09106C10.4045 1.69386 10.895 2.18233 11.5007 2.18233C12.1054 2.18233 12.5972 1.69384 12.5972 1.09106C12.5974 0.488471 12.1056 0 11.5007 0ZM21.9042 1.37059C21.2995 1.37059 20.8095 1.85908 20.8095 2.46164C20.8095 3.06483 21.2994 3.55292 21.9042 3.55292C22.5101 3.55292 23 3.06464 23 2.46164C23.0004 1.85906 22.5101 1.37059 21.9042 1.37059ZM1.09559 1.37059C0.490283 1.37059 0 1.85908 0 2.46164C0 3.06483 0.49031 3.55292 1.09559 3.55292C1.70149 3.55292 2.19183 3.06464 2.19183 2.46164C2.19183 1.85906 1.70173 1.37059 1.09559 1.37059Z" fill="#70BEB0"/>
</svg>
