<svg width="21" height="21" viewBox="0 0 21 21" fill="none" xmlns="http://www.w3.org/2000/svg">
<path fill-rule="evenodd" clip-rule="evenodd" d="M17.5443 8.86076V6.20253H15.7722V8.86076H13.1139V10.6329H15.7722V13.2911H17.5443V10.6329H20.2025V8.86076H17.5443ZM10.7215 11.8734L9.74683 11.1646C9.3924 10.8987 9.03797 10.5443 9.03797 9.92405C9.03797 9.3038 9.48101 8.77215 9.92405 8.50633C11.0759 7.62025 12.2278 6.64557 12.2278 4.6962C12.2278 2.83544 11.0759 1.77215 10.4557 1.24051H11.962L13.0253 0H7.53165C3.63291 0 1.68354 2.48101 1.68354 5.13924C1.68354 7.17722 3.27848 9.3924 6.11392 9.3924H6.82278C6.73418 9.65823 6.46835 10.1013 6.46835 10.5443C6.46835 11.4304 6.82278 11.7848 7.26582 12.3165C6.02532 12.4051 3.72152 12.6709 2.03797 13.7342C0.443038 14.7089 0 16.038 0 17.0127C0 19.0506 1.86076 21 5.8481 21C10.6329 21 12.9367 18.3418 12.9367 15.7722C12.9367 13.9114 11.962 12.9367 10.7215 11.8734ZM3.98734 3.81013C3.98734 1.86076 5.13924 0.974684 6.37975 0.974684C8.68354 0.974684 9.92405 4.07595 9.92405 5.8481C9.92405 8.1519 8.06329 8.59494 7.35443 8.59494C5.13924 8.59494 3.98734 5.8481 3.98734 3.81013ZM7.17722 19.7595C4.25316 19.7595 2.39241 18.4304 2.39241 16.481C2.39241 14.5316 4.16456 13.9114 4.6962 13.6456C5.8481 13.2911 7.35443 13.2025 7.62025 13.2025H8.24051C10.3671 14.7089 11.2532 15.3291 11.2532 16.7468C11.2532 18.4304 9.56962 19.7595 7.17722 19.7595Z" fill="#163B61"/>
</svg>
