<svg width="13" height="18" viewBox="0 0 13 18" fill="none" xmlns="http://www.w3.org/2000/svg">
<path d="M12.5 6.5C12.5 4.9087 11.8679 3.38258 10.7426 2.25736C9.61742 1.13214 8.0913 0.5 6.5 0.5C4.9087 0.5 3.38258 1.13214 2.25736 2.25736C1.13214 3.38258 0.5 4.9087 0.5 6.5C0.5 11.9545 6.5 16.8636 6.5 16.8636C6.5 16.8636 12.5 11.9545 12.5 6.5Z" stroke="#163B61" stroke-linecap="round" stroke-linejoin="round"/>
<path d="M6.50001 9.22728C8.00624 9.22728 9.22728 8.00624 9.22728 6.50001C9.22728 4.99378 8.00624 3.77274 6.50001 3.77274C4.99378 3.77274 3.77274 4.99378 3.77274 6.50001C3.77274 8.00624 4.99378 9.22728 6.50001 9.22728Z" stroke="#163B61" stroke-linecap="round" stroke-linejoin="round"/>
</svg>
