<svg width="55" height="62" viewBox="0 0 55 62" fill="none" xmlns="http://www.w3.org/2000/svg">
<path d="M54.7275 34.6783C54.7275 40.3741 52.9761 45.6699 49.9799 50.0511C49.2591 51.1212 48.4578 52.1349 47.5898 53.0836C46.4272 54.3588 45.1346 55.5281 43.7427 56.5657C39.1748 59.9828 33.5025 62 27.3646 62C25.1303 62 22.9525 61.7299 20.874 61.2239C19.9238 60.9948 18.9993 60.7179 18.0987 60.3897C15.1196 59.3264 12.3854 57.7589 9.98673 55.7879C3.8882 50.7793 0 43.1775 0 34.6783C0 19.5926 12.2536 7.35828 27.3646 7.35828C42.4757 7.35828 54.7293 19.5926 54.7293 34.68L54.7275 34.6783Z" fill="#D4E9DC"/>
<path d="M7.91557 28.7851C9.05584 29.7954 9.98723 30.5458 10.0523 31.9646C10.2663 36.6621 20.0373 40.3664 26.4389 33.9595C28.1048 32.2911 30.6079 31.9663 31.5615 30.5424C31.9279 29.9954 32.171 29.4159 32.7703 28.9287C34.1399 27.8124 37.0026 27.4637 37.7884 26.2056C38.2353 25.491 37.4152 24.6021 38.2096 24.0551C43.1354 20.6636 43.4692 13.5234 40.3052 10.6037C38.8003 9.21562 37.119 4.72497 36.643 3.81043C34.6793 0.0394444 26.3036 -1.19647 19.8952 1.30442C14.4952 3.41213 9.88621 6.29251 11.035 9.56264C8.93599 11.1148 9.17055 14.4174 9.04385 16.2379C8.97195 17.2653 9.22876 18.3115 8.46859 19.3217C7.04925 21.2089 6.29421 21.7286 5.82509 23.6722C5.56314 24.7594 7.01672 27.9885 7.91557 28.7851Z" fill="#163B61"/>
<path d="M49.979 50.0503C49.2582 51.1204 48.457 52.1341 47.5889 53.0829C46.4264 54.3581 45.1338 55.5273 43.7418 56.5649L31.93 46.399C30.8171 45.4024 30.17 43.9887 30.17 42.493V42.4759C30.17 39.657 32.3888 37.3767 35.147 37.2365C35.3594 37.2126 35.5734 37.2126 35.7942 37.228L36.0887 37.2519C37.4156 37.3425 38.6586 37.9305 39.5677 38.8946L49.979 50.0503Z" fill="#70BEB0"/>
<path d="M47.5893 53.0819C46.4267 54.3571 45.1341 55.5264 43.7422 56.564C39.1743 59.9811 33.502 61.9982 27.3641 61.9982C25.1298 61.9982 22.952 61.7282 20.8735 61.2222C20.7177 59.2273 20.2109 57.4307 19.6288 55.8204C19.1785 54.5776 18.6957 53.458 18.2951 52.4528C16.797 48.6528 11.6572 42.3023 15.6345 38.8373C16.0848 38.4458 16.6669 38.1022 17.3363 37.7997C20.8889 36.2219 26.9943 35.839 29.3039 36.1398C29.607 36.1808 32.4303 36.4424 32.7179 36.492C33.627 36.5894 34.4197 36.721 35.1491 37.2356C35.1987 37.2526 35.2398 37.2851 35.2809 37.3176C35.5103 37.4971 35.7398 37.7108 35.9521 37.9706C38.6949 41.2886 41.4359 44.5826 44.1787 47.9006C45.4234 49.4118 46.7897 51.1691 47.5927 53.0819H47.5893Z" fill="#70BEB0"/>
<path d="M27.0276 24.6659L22.434 24.5223L23.8465 37.6011C23.8465 37.6011 30.8815 44.0815 34.7064 42.131C37.1838 40.866 29.7532 36.5104 29.7532 36.5104L27.0293 24.6659H27.0276Z" fill="#FFBA9A"/>
<path opacity="0.3" d="M22.5977 26.0565L28.3538 30.4377L29.1807 34.0343L23.0839 30.5505L22.5977 26.0565Z" fill="#BF643A"/>
<path d="M17.7476 24.274C16.9925 22.5611 17.0097 20.0842 18.4513 19.6397C18.881 19.5081 19.4135 19.5662 19.9596 19.7577C23.4712 19.1696 17.5747 8.56952 26.267 6.79514C31.1037 5.8088 35.1786 6.81736 38.3888 19.3474C39.6591 24.3048 37.7947 30.3612 33.2456 32.2142C29.8265 33.6057 24.935 30.604 22.1871 26.9202C20.5332 26.8005 18.7046 26.4467 17.7476 24.274Z" fill="#FFBA9A"/>
<path d="M26.421 16.6114C26.7326 16.0678 27.2189 15.6199 27.8164 15.4096C28.3626 15.2165 28.9652 15.2404 29.4771 15.5242C29.573 15.5772 29.6603 15.4302 29.5627 15.3772C28.669 14.8797 27.5784 15.1344 26.8473 15.8028C26.6196 16.0114 26.4279 16.2575 26.2738 16.5242C26.219 16.6199 26.3662 16.7054 26.421 16.6097V16.6114Z" fill="#001848"/>
<path d="M28.9431 17.0791C29.0367 16.5089 28.7639 15.9896 28.3337 15.9192C27.9035 15.8488 27.4789 16.2539 27.3853 16.8241C27.2917 17.3943 27.5645 17.9136 27.9947 17.984C28.4249 18.0544 28.8495 17.6492 28.9431 17.0791Z" fill="#001848"/>
<path d="M33.0138 15.8346C33.411 15.1799 34.2636 14.1611 35.0872 14.8363C35.1711 14.9064 35.2926 14.7851 35.2087 14.715C34.8714 14.438 34.4571 14.368 34.0548 14.5423C33.5291 14.7697 33.1542 15.2739 32.8666 15.7475C32.8101 15.8415 32.9573 15.9269 33.0138 15.8329V15.8346Z" fill="#001848"/>
<path d="M34.6397 16.4294C34.732 15.8676 34.5632 15.3724 34.2627 15.3232C33.9623 15.274 33.6439 15.6896 33.5517 16.2513C33.4594 16.8131 33.6282 17.3084 33.9287 17.3576C34.2292 17.4068 34.5475 16.9912 34.6397 16.4294Z" fill="#001848"/>
<path opacity="0.3" d="M31.6751 16.8298C33.0208 20.2777 35.226 19.9222 35.4554 20.9905C35.6849 22.0589 32.2812 22.3512 32.2812 22.3512L31.6751 16.8298Z" fill="#BF643A"/>
<path d="M29.5004 24.0176C29.5895 24.1082 29.6768 24.1971 29.7624 24.2894C29.8514 24.3783 29.9473 24.4586 30.0398 24.5424C30.2281 24.7065 30.4284 24.8552 30.6407 24.98C31.0636 25.233 31.5464 25.3834 32.0326 25.3595C32.5189 25.3441 32.988 25.1612 33.4023 24.8945C33.5119 24.8347 33.6061 24.7544 33.7054 24.6791L33.8526 24.5646L33.9896 24.4381C34.1831 24.2791 34.3457 24.0877 34.5255 23.9082C34.2361 24.3202 33.892 24.7014 33.476 25.0022C33.0633 25.3048 32.5617 25.5099 32.0378 25.5287C31.7758 25.5424 31.5156 25.4962 31.2656 25.4279C31.1441 25.3817 31.0225 25.3373 30.9044 25.2843C30.7914 25.221 30.6749 25.1663 30.5705 25.0911C30.1425 24.8056 29.7881 24.4313 29.4987 24.0176H29.5004Z" fill="#001848"/>
<path opacity="0.3" d="M23.9808 12.2062C23.9808 12.2062 26.174 11.8181 28.0779 12.5344C29.9835 13.2506 30.1324 14.0592 30.1324 14.0592C30.1324 14.0592 30.4115 12.5293 28.8398 11.7583C26.3829 10.5532 23.9808 12.2079 23.9808 12.2079V12.2062Z" fill="#BF643A"/>
<path opacity="0.3" d="M35.6477 11.6668C35.6477 11.6668 34.9064 11.1488 33.8192 11.9847C32.768 12.7916 32.2766 13.7762 32.2766 13.7762C32.2766 13.7762 32.34 12.6463 33.0162 11.6907C34.4904 9.61034 35.6477 11.6668 35.6477 11.6668Z" fill="#BF643A"/>
<path opacity="0.3" d="M20.4937 23.2125C20.4937 23.2125 21.1203 21.4706 18.5607 20.1646" stroke="#BF643A" stroke-miterlimit="10"/>
<path d="M23.2788 44.9109L19.6286 55.8221L18.0979 60.3914C15.1189 59.3281 12.3846 57.7606 9.98597 55.7896L13.0233 41.798C13.3674 40.3433 14.309 39.1006 15.6188 38.3809C16.1667 38.0783 16.7488 37.8903 17.3378 37.8014C17.5997 37.7518 17.8702 37.7364 18.1407 37.7364C20.1302 37.7364 22.0444 38.8647 22.9381 40.8014L23.0613 41.0715C23.6178 42.2818 23.6914 43.6545 23.2822 44.9126L23.2788 44.9109Z" fill="#70BEB0"/>
</svg>
