<svg width="16" height="16" viewBox="0 0 16 16" fill="none" xmlns="http://www.w3.org/2000/svg">
<path d="M0.202895 5.20409H3.63189V16H0.202895V5.20409ZM1.94034 0C0.766743 0 0 0.80609 0 1.86411C0 2.90037 0.744305 3.7299 1.89547 3.7299H1.91733C3.11337 3.7299 3.85821 2.90033 3.85821 1.86411C3.83577 0.80609 3.11341 0 1.94034 0ZM12.051 4.95049C10.2309 4.95049 9.41543 5.99791 8.96053 6.73246V5.20409H5.53051C5.57592 6.21688 5.53051 16 5.53051 16H8.96053V9.97081C8.96053 9.64789 8.98297 9.32617 9.07322 9.09485C9.32156 8.45022 9.88591 7.78266 10.8325 7.78266C12.0745 7.78266 12.5705 8.77313 12.5705 10.2238V16H16V9.80939C16 6.4934 14.3085 4.95049 12.051 4.95049Z" fill="#408FAD"/>
</svg>
