<svg width="20" height="18" viewBox="0 0 20 18" fill="none" xmlns="http://www.w3.org/2000/svg">
<path d="M19.5667 1.72108C19.5565 0.768336 18.7779 0.00206059 17.8293 0H17.3396H16.264H14.7334H12.8771H10.8364H8.72198H6.67309H4.82909H3.30062H2.22702H1.73937C0.790751 0.00409794 0.0101254 0.770359 0.00192052 1.72108C-0.00012834 1.89523 0.00192052 2.06939 0.00192052 2.24151V3.59171V5.45823V7.55834V9.57854V11.2156V12.1642C0.00192052 12.2257 -0.000128321 12.2871 0.0039694 12.3486C0.0285559 12.9305 0.342033 13.4693 0.844014 13.7705C1.17593 13.9693 1.54064 14.0123 1.91559 14.0123H2.72286H4.05055H5.76544H7.73851H9.82836H11.9243H13.8892H15.5836H16.8929H17.6796C18.0874 14.0123 18.491 13.9508 18.8311 13.7029C19.288 13.371 19.5666 12.8608 19.5707 12.2912V12.1437V11.1562V9.49656V7.47636V5.38037V3.51999V2.19848C19.5666 2.04072 19.5666 1.88091 19.5666 1.7211C19.5666 1.50597 19.3781 1.30108 19.1568 1.31131C18.9356 1.32155 18.747 1.49161 18.747 1.7211V2.22306V3.54457V5.38037V7.45586V9.45965V11.111V12.1211V12.2912C18.747 12.3342 18.7307 12.3957 18.7388 12.4367C18.7388 12.4367 18.7532 12.3527 18.7429 12.3977C18.7409 12.4121 18.7388 12.4244 18.7348 12.4387C18.7286 12.4715 18.7204 12.5022 18.7122 12.533C18.704 12.5596 18.6958 12.5862 18.6876 12.6108C18.6835 12.6231 18.6774 12.6375 18.6733 12.6498C18.6507 12.7112 18.6856 12.6293 18.6835 12.6272C18.6938 12.6395 18.6159 12.7563 18.6077 12.7706C18.5934 12.7932 18.577 12.8157 18.5626 12.8383C18.5545 12.8505 18.5381 12.8874 18.5626 12.8403C18.5872 12.7932 18.5647 12.8383 18.5524 12.8505C18.5135 12.8936 18.4745 12.9366 18.4315 12.9755C18.4213 12.9837 18.3823 13.0288 18.3701 13.0267C18.366 13.0267 18.4397 12.9796 18.3987 13.0042C18.3844 13.0124 18.3701 13.0247 18.3537 13.0349C18.3086 13.0657 18.2615 13.0903 18.2123 13.1148C18.2082 13.1169 18.1775 13.1333 18.1754 13.1333C18.1734 13.1312 18.2533 13.1026 18.2102 13.1189C18.1754 13.1312 18.1426 13.1435 18.1058 13.1538C18.0525 13.1702 17.9972 13.1804 17.9439 13.1907C17.8988 13.2009 17.9828 13.1845 17.9828 13.1866C17.9726 13.1845 17.9521 13.1886 17.9398 13.1907C17.907 13.1927 17.8722 13.1948 17.8394 13.1948H17.8169H17.6448H16.8395H15.5344H13.8502H11.9038H9.83648H7.75686H5.80837H4.10577H2.76991H1.93807H1.74752H1.71474H1.69835C1.66967 13.1948 1.64098 13.1927 1.6123 13.1907C1.516 13.1825 1.66352 13.2029 1.59591 13.1907C1.54058 13.1804 1.48732 13.1681 1.43404 13.1517C1.40741 13.1435 1.38282 13.1333 1.35619 13.1251C1.33775 13.1189 1.31726 13.0985 1.35414 13.1251C1.39921 13.1579 1.35619 13.1251 1.34185 13.1169C1.29062 13.0882 1.2394 13.0616 1.19023 13.0288C1.17998 13.0206 1.16769 13.0124 1.15745 13.0063C1.11647 12.9817 1.19023 13.0288 1.18613 13.0288C1.17179 13.0308 1.12671 12.9776 1.11442 12.9673C1.07549 12.9304 1.03861 12.8915 1.00378 12.8505C0.999682 12.8464 0.977144 12.8239 0.977144 12.8198C0.977144 12.8157 1.02427 12.8895 0.999682 12.8485C0.983291 12.8219 0.962802 12.7973 0.948459 12.7706C0.932068 12.744 0.915677 12.7153 0.901336 12.6887C0.89314 12.6723 0.848064 12.6047 0.880847 12.6518C0.913629 12.6948 0.8747 12.6334 0.866505 12.6108C0.85626 12.5801 0.846016 12.5494 0.837821 12.5186C0.831674 12.492 0.825528 12.4654 0.819381 12.4367C0.817332 12.4223 0.815283 12.41 0.811185 12.3957C0.800941 12.3506 0.817332 12.4346 0.815283 12.4346C0.823478 12.3957 0.807087 12.3322 0.807087 12.2912V12.1498V11.1889V9.56004V7.56854V5.49919V3.63267V2.28041C0.807087 2.09396 0.805038 1.90751 0.807087 1.72311V1.70672C0.807087 1.67804 0.809136 1.64935 0.811185 1.62067C0.819381 1.52437 0.798892 1.67189 0.811185 1.60428C0.82143 1.54895 0.833723 1.49569 0.850115 1.44241C0.858311 1.41578 0.868555 1.39119 0.876751 1.36456C0.882897 1.34612 0.903386 1.32563 0.876751 1.36251C0.843969 1.40758 0.876751 1.36456 0.884946 1.35022C0.911582 1.29899 0.940267 1.24777 0.973049 1.1986C0.981245 1.18835 0.98944 1.17606 0.995587 1.16582C1.02017 1.12484 0.973049 1.1986 0.973049 1.1945C0.971 1.18016 1.02427 1.13508 1.03451 1.12279C1.07139 1.08386 1.11032 1.04698 1.1513 1.01215C1.1554 1.00805 1.17794 0.985514 1.18203 0.985514C1.18818 0.985514 1.11032 1.03059 1.15335 1.00805C1.18408 0.99166 1.21277 0.967072 1.2435 0.948635C1.26604 0.934293 1.29062 0.922 1.31521 0.909705C1.3316 0.90151 1.39922 0.856434 1.35209 0.889217C1.30907 0.921999 1.37053 0.88307 1.39307 0.874875C1.4238 0.86463 1.45454 0.854386 1.48527 0.846191C1.5119 0.840044 1.53854 0.833897 1.56722 0.82775C1.58157 0.825702 1.59386 0.823653 1.6082 0.819555C1.65328 0.80931 1.56927 0.825701 1.56927 0.823653C1.6082 0.831848 1.67172 0.815457 1.71269 0.815457H1.73933H2.25361H3.33134H4.85572H6.68743H8.71786H10.8016H12.8238H14.6698H16.1942H17.2822H17.8108H17.8395H17.8702C17.8989 0.815457 17.9276 0.817506 17.9562 0.819555C18.0362 0.823653 17.8825 0.805213 17.9583 0.819555C18.0177 0.831848 18.0751 0.844142 18.1325 0.86258C18.1591 0.870776 18.1837 0.88102 18.2103 0.889216C18.2533 0.903558 18.1734 0.874873 18.1755 0.874873C18.1775 0.872825 18.2083 0.891264 18.2124 0.893313C18.2595 0.9179 18.3087 0.944536 18.3537 0.973219C18.3681 0.983464 18.4418 1.02239 18.3886 0.995757C18.3394 0.97117 18.4049 1.0101 18.4193 1.02239C18.4623 1.06132 18.5033 1.1023 18.5422 1.14532C18.5504 1.15557 18.5586 1.16581 18.5689 1.17606C18.5996 1.20884 18.5422 1.14737 18.5463 1.14532C18.5545 1.14532 18.5873 1.20474 18.5914 1.21294C18.6201 1.25801 18.6447 1.30718 18.6713 1.35431C18.7061 1.42192 18.6467 1.28464 18.6733 1.35636C18.6815 1.38299 18.6918 1.40758 18.7 1.43421C18.7184 1.49158 18.7287 1.551 18.741 1.61042C18.7512 1.65549 18.7348 1.57149 18.7369 1.57149C18.7348 1.58173 18.7389 1.60222 18.741 1.61451C18.743 1.64729 18.7451 1.68212 18.7451 1.71491C18.7471 1.93004 18.9315 2.13493 19.1549 2.1247C19.3761 2.1206 19.5687 1.95055 19.5667 1.72109L19.5667 1.72108Z" fill="white" fill-opacity="0.5"/>
<path d="M19.1573 6.8433H18.6574H17.2949H15.2788H12.8181H10.1238H7.40291H4.86435H2.71916H1.17635C0.932531 6.8433 0.686677 6.8392 0.442854 6.8433H0.412121C0.196988 6.8433 -0.00790185 7.03179 0.00232615 7.25309C0.0125541 7.47439 0.182628 7.66288 0.412121 7.66288H0.912056H2.27455H4.29063H6.75134H9.44562H12.1665H14.7051H16.8503H18.3931C18.6369 7.66288 18.8828 7.66698 19.1266 7.66288H19.1573C19.3725 7.66288 19.5773 7.47439 19.5671 7.25309C19.5569 7.03181 19.3868 6.8433 19.1573 6.8433Z" fill="white" fill-opacity="0.5"/>
<path d="M0.410162 10.45H0.910098H2.27259H4.28867H6.74939H9.44366H12.1646H14.7031H16.8483H18.3911C18.635 10.45 18.8808 10.4541 19.1246 10.45H19.1554C19.3705 10.45 19.5754 10.2615 19.5652 10.0402C19.5549 9.81891 19.3849 9.63042 19.1554 9.63042H18.6554H17.2929H15.2769H12.8161H10.1219H7.40096H4.86239H2.71721H1.17439C0.930573 9.63042 0.684719 9.62632 0.440895 9.63042H0.410162C0.195029 9.63042 -0.00986047 9.81891 0.000367526 10.0402C0.010612 10.2615 0.180669 10.45 0.410162 10.45Z" fill="white" fill-opacity="0.5"/>
<path d="M13.9154 17.2375C13.4666 17.0039 13.02 16.7704 12.5713 16.5347C11.8665 16.1659 11.1637 15.7992 10.4589 15.4304C10.3052 15.3505 10.1557 15.2644 9.99994 15.1907C9.85447 15.121 9.72129 15.119 9.57786 15.1907C9.56147 15.1989 9.54508 15.2071 9.53073 15.2153C9.45083 15.2562 9.37092 15.2993 9.29306 15.3402C8.62307 15.6906 7.95106 16.0409 7.28107 16.3913C6.75247 16.6679 6.21361 16.9322 5.69318 17.2211C5.68499 17.2252 5.67474 17.2313 5.6645 17.2354C5.86939 17.3543 6.07632 17.4711 6.28121 17.5899V16.2417V14.0945V13.6028C6.14394 13.7401 6.00871 13.8753 5.87142 14.0126H6.64998H8.52062H10.7846H12.7434C13.0609 14.0126 13.3806 14.0269 13.6961 14.0126H13.7104C13.5732 13.8753 13.4379 13.7401 13.3006 13.6028V14.951V17.0982V17.5899C13.3006 17.805 13.4891 18.0099 13.7104 17.9997C13.9317 17.9895 14.1202 17.8194 14.1202 17.5899V16.2417V14.0945V13.6028C14.1202 13.3815 13.9317 13.193 13.7104 13.193H12.9319H11.0612H8.79722H6.8385C6.52092 13.193 6.20129 13.1848 5.88576 13.193H5.87142C5.65014 13.193 5.46162 13.3815 5.46162 13.6028V14.951V17.0982V17.5899C5.46162 17.9116 5.80583 18.0857 6.07834 17.9443C6.52088 17.7128 6.96139 17.4813 7.40397 17.2518C8.10674 16.883 8.81154 16.5163 9.51431 16.1475C9.67412 16.0635 9.83598 15.9795 9.99581 15.8955H9.58193C10.0245 16.127 10.465 16.3585 10.9076 16.588C11.6103 16.9568 12.3151 17.3235 13.0179 17.6923C13.1777 17.7763 13.3396 17.8603 13.4994 17.9443C13.69 18.0427 13.9543 17.9997 14.0608 17.7968C14.1612 17.6104 14.1182 17.344 13.9153 17.2375L13.9154 17.2375Z" fill="white" fill-opacity="0.5"/>
</svg>
