<svg width="16" height="16" viewBox="0 0 16 16" fill="none" xmlns="http://www.w3.org/2000/svg">
<path d="M8 0C5.87824 0 3.84346 0.842851 2.34318 2.34318C0.842851 3.8434 0 5.8783 0 8C0 10.1217 0.842851 12.1565 2.34318 13.6568C3.8434 15.1571 5.8783 16 8 16C10.1217 16 12.1565 15.1571 13.6568 13.6568C15.1571 12.1566 16 10.1217 16 8C16 5.8783 15.1571 3.84346 13.6568 2.34318C12.1566 0.842851 10.1217 0 8 0ZM14.6665 7.33338H11.9999C11.9954 5.43328 11.5384 3.56169 10.6666 1.87342C11.76 2.34361 12.7076 3.09784 13.4111 4.058C14.1144 5.01814 14.5479 6.14904 14.6665 7.33338ZM8 14.6665C6.81329 14.6665 5.50002 12.1398 5.33339 8.66651H10.6668C10.5 12.1399 9.18676 14.6665 8.00006 14.6665H8ZM5.33339 7.33338C5.48674 3.85997 6.80001 1.33342 8 1.33342C9.19999 1.33342 10.5 3.86009 10.6666 7.33338H5.33339ZM5.33339 1.87342C4.46151 3.56169 4.00449 5.43339 4.00003 7.33338H1.33342C1.45563 6.14476 1.89513 5.01085 2.60595 4.05026C3.31666 3.08978 4.27246 2.33787 5.37333 1.87339L5.33339 1.87342ZM1.36656 8.66679H3.99991C4.00438 10.5669 4.4614 12.4385 5.33328 14.1268C4.246 13.6519 3.30529 12.8956 2.60795 11.9358C1.91061 10.976 1.48219 9.84753 1.36656 8.66668V8.66679ZM10.6265 14.1268C11.5122 12.4419 11.9831 10.5702 11.9998 8.66679H14.6664C14.5442 9.85542 14.1047 10.9893 13.3939 11.9499C12.6832 12.9104 11.7274 13.6623 10.6265 14.1268V14.1268Z" fill="#408FAD"/>
</svg>
