<svg width="86" height="140" viewBox="0 0 86 140" fill="none" xmlns="http://www.w3.org/2000/svg">
<path d="M11.5124 8.74636C11.75 3.938 15.7177 0.161402 20.5319 0.161402L72.3321 0.161395C77.441 0.161394 81.5326 4.39589 81.3573 9.50176L77.1946 130.758C77.0276 135.622 73.0362 139.479 68.1694 139.479L14.5418 139.479C9.3794 139.479 5.26754 135.159 5.52226 130.003L11.5124 8.74636Z" fill="#0C233C"/>
<path d="M11.4176 8.72472C11.6512 3.9235 15.605 0.146784 20.4119 0.133176L67.4433 2.52956e-05C72.5632 -0.01447 76.6711 4.2261 76.494 9.34303L72.2954 130.596C72.1274 135.449 68.1517 139.3 63.2959 139.314L14.5617 139.452C9.39186 139.467 5.26499 135.146 5.5163 129.983L11.4176 8.72472Z" fill="#163B61"/>
<rect x="38.9505" y="5.52956" width="18.2936" height="3.65873" rx="1.82318" transform="rotate(1.29774 38.9505 5.52956)" fill="white"/>
<circle cx="32.9549" cy="7.68129" r="2.28671" transform="rotate(1.29774 32.9549 7.68129)" fill="white"/>
<path d="M13.44 19.5752C13.6102 16.3793 16.2513 13.8752 19.4518 13.8752H67.789C71.23 13.8752 73.9711 16.7543 73.802 20.1912L68.9061 119.742C68.7484 122.948 66.103 125.466 62.893 125.466H14.1479C10.6971 125.466 7.95245 122.572 8.13604 119.126L13.44 19.5752Z" fill="white"/>
<path d="M1.89334 30.1812C2.12705 25.3888 6.06762 21.6159 10.8656 21.5906L76.9218 21.2428C82.1034 21.2156 86.2452 25.5448 85.9888 30.7202L84.1354 68.1249C83.8999 72.8777 80.0166 76.6322 75.2586 76.7074L9.19769 77.7508C3.98181 77.8332 -0.218842 73.4918 0.0352558 68.2815L1.89334 30.1812Z" fill="#6FB489"/>
<path d="M1.7699 30.2016C1.99171 25.4008 5.93473 21.6147 10.7406 21.588L72.3704 21.2455C77.5438 21.2168 81.6838 25.5316 81.4412 30.6993L79.6851 68.1092C79.4617 72.8686 75.5791 76.6356 70.8151 76.715L9.1813 77.7426C3.97152 77.8295 -0.230611 73.5015 0.00986469 68.2966L1.7699 30.2016Z" fill="#408FAD"/>
<path fill-rule="evenodd" clip-rule="evenodd" d="M22.1603 33.9983C19.5638 33.9983 17.3963 35.9795 17.1635 38.5656L16.0926 50.466C15.8284 53.4024 18.1411 55.9326 21.0894 55.9326L39.7524 55.9326L58.0027 55.9325L63.6215 65.4413L63.9431 55.1495L64.732 39.2641C64.8743 36.3991 62.5897 33.9982 59.7212 33.9983L22.1603 33.9983Z" fill="white"/>
<path d="M29.0571 44.8935H27.2982L28.3785 43.3837C28.643 43.0162 28.5783 42.5459 28.2345 42.3336C27.8933 42.123 27.4008 42.2474 27.1377 42.6149L26.0571 44.1265L25.3788 42.6151C25.214 42.246 24.7544 42.1214 24.3569 42.3338C23.9579 42.5459 23.7683 43.0163 23.9333 43.3839L24.6118 44.8934H22.853C22.4248 44.8934 22.0316 45.2378 21.9751 45.6622C21.9186 46.0867 22.2202 46.431 22.6484 46.431H24.4072L23.3269 47.9408C23.0625 48.3084 23.1272 48.7786 23.471 48.991C23.5843 49.0602 23.7133 49.0939 23.8449 49.0939C24.1116 49.0939 24.392 48.957 24.5675 48.7096L25.6484 47.1981L26.3266 48.7094C26.4365 48.957 26.6803 49.0937 26.947 49.0937C27.0789 49.0937 27.2164 49.0615 27.3483 48.9908C27.7473 48.7787 27.9369 48.3082 27.7719 47.9406L27.0935 46.4311H28.8524C29.2806 46.4311 29.6738 46.0867 29.7303 45.6623C29.7865 45.2379 29.4849 44.8935 29.057 44.8935H29.0571Z" fill="#6FB489"/>
<path d="M38.3628 44.8934H36.604L37.6843 43.3836C37.9487 43.0161 37.8841 42.5458 37.5402 42.3335C37.199 42.1229 36.7065 42.2472 36.4434 42.6148L35.3629 44.1263L34.6846 42.615C34.5197 42.2459 34.0601 42.1213 33.6626 42.3337C33.2636 42.5457 33.074 43.0162 33.2391 43.3838L33.9176 44.8933H32.1587C31.7306 44.8933 31.3373 45.2377 31.2809 45.6621C31.2244 46.0865 31.526 46.4309 31.9541 46.4309H33.713L32.6327 47.9407C32.3683 48.3082 32.4329 48.7785 32.7767 48.9908C32.8901 49.0601 33.019 49.0938 33.1507 49.0938C33.4173 49.0938 33.6978 48.9569 33.8733 48.7095L34.9541 47.198L35.6324 48.7093C35.7422 48.9569 35.986 49.0936 36.2527 49.0936C36.3846 49.0936 36.5221 49.0614 36.6541 48.9906C37.0531 48.7786 37.2427 48.3081 37.0776 47.9405L36.3993 46.431H38.1582C38.5863 46.431 38.9796 46.0866 39.036 45.6622C39.0923 45.2378 38.7907 44.8934 38.3628 44.8934H38.3628Z" fill="#6FB489"/>
<path d="M47.6686 44.8933H45.9097L46.9901 43.3835C47.2545 43.0159 47.1898 42.5457 46.846 42.3333C46.5032 42.1228 46.0108 42.2471 45.7492 42.6147L44.6686 44.1262L43.9904 42.6149C43.8271 42.2458 43.3674 42.1215 42.9684 42.3335C42.5693 42.5456 42.3798 43.0161 42.5448 43.3837L43.2233 44.8935L41.4645 44.8932C41.0363 44.8932 40.6431 45.2376 40.5866 45.662C40.5301 46.0864 40.8317 46.4308 41.2599 46.4308H43.0188L41.9384 47.9406C41.674 48.3081 41.7387 48.7784 42.0825 48.9907C42.1958 49.06 42.3248 49.0937 42.4564 49.0937C42.7231 49.0937 43.0036 48.9568 43.1791 48.7094L44.2599 47.1978L44.9382 48.7092C45.048 48.9568 45.2918 49.0935 45.5585 49.0935C45.6904 49.0935 45.8279 49.0613 45.9599 48.9905C46.3588 48.7784 46.5484 48.308 46.3834 47.9404L45.7051 46.4309H47.4639C47.8921 46.4309 48.2853 46.0865 48.3418 45.6621C48.398 45.2377 48.0964 44.8933 47.6685 44.8933L47.6686 44.8933Z" fill="#6FB489"/>
<path d="M56.9745 44.8933H55.2156L56.2959 43.3835C56.5604 43.0159 56.4957 42.5457 56.1519 42.3333C55.8091 42.1228 55.3182 42.2471 55.0551 42.6147L53.9745 44.1262L53.2962 42.6149C53.1314 42.2458 52.6749 42.1215 52.2743 42.3335C51.8737 42.5456 51.6857 43.0161 51.8507 43.3837L52.5292 44.8935L50.7704 44.8932C50.3422 44.8932 49.949 45.2376 49.8925 45.662C49.836 46.0864 50.1376 46.4308 50.5658 46.4308H52.3246L51.2443 47.9406C50.9799 48.3081 51.0446 48.7784 51.3884 48.9907C51.5017 49.06 51.6307 49.0937 51.7623 49.0937C52.029 49.0937 52.3094 48.9568 52.4849 48.7094L53.5658 47.1978L54.244 48.7092C54.3539 48.9568 54.5977 49.0935 54.8644 49.0935C54.9963 49.0935 55.1338 49.0613 55.2657 48.9905C55.6647 48.7784 55.8543 48.308 55.6893 47.9404L55.0109 46.4309H56.7698C57.198 46.4309 57.5912 46.0865 57.6477 45.6621C57.7039 45.2377 57.4023 44.8933 56.9744 44.8933L56.9745 44.8933Z" fill="#6FB489"/>
</svg>
