<svg width="17" height="13" viewBox="0 0 17 13" fill="none" xmlns="http://www.w3.org/2000/svg">
<path d="M1.82143 12.2948H15.1786C15.6617 12.2948 16.1249 12.1029 16.4666 11.7614C16.8081 11.4197 17 10.9565 17 10.4734V1.82143C17 1.33828 16.8081 0.875084 16.4666 0.533418C16.1249 0.191899 15.6617 0 15.1786 0H1.82143C1.33828 0 0.875084 0.191899 0.533418 0.533418C0.191899 0.875073 0 1.33828 0 1.82143V10.4734C0 10.9565 0.191899 11.4197 0.533418 11.7614C0.875073 12.1029 1.33828 12.2948 1.82143 12.2948ZM1.21429 1.82143C1.21429 1.66043 1.27825 1.50593 1.39209 1.39209C1.50593 1.27825 1.66043 1.21429 1.82143 1.21429H15.1786C15.3396 1.21429 15.4941 1.27825 15.6079 1.39209C15.7217 1.50593 15.7857 1.66043 15.7857 1.82143V10.4734C15.7857 10.6344 15.7217 10.7889 15.6079 10.9027C15.4941 11.0166 15.3396 11.0805 15.1786 11.0805H1.82143C1.66043 11.0805 1.50593 11.0166 1.39209 10.9027C1.27825 10.7889 1.21429 10.6344 1.21429 10.4734V1.82143Z" fill="#408FAD"/>
<path d="M2.70726 3.62224L8.17154 7.13569V7.13555C8.26952 7.19857 8.38364 7.23218 8.50005 7.23218C8.61647 7.23218 8.73057 7.19857 8.82856 7.13555L14.2928 3.6221V3.62224C14.4293 3.5355 14.5257 3.39809 14.5604 3.24019C14.5952 3.08231 14.5655 2.9171 14.4781 2.78105C14.3907 2.64512 14.2526 2.54971 14.0944 2.51583C13.9364 2.48209 13.7713 2.51272 13.6358 2.60094L8.50007 5.90446L3.36434 2.60094C3.22882 2.51272 3.06375 2.48209 2.90572 2.51583C2.74756 2.54971 2.60946 2.64512 2.52204 2.78105C2.43463 2.91712 2.40495 3.08232 2.43978 3.24019C2.47447 3.39807 2.57083 3.53549 2.7073 3.62224H2.70726Z" fill="#408FAD"/>
</svg>
