<svg width="17" height="16" viewBox="0 0 17 16" fill="none" xmlns="http://www.w3.org/2000/svg">
<path d="M14.6017 4.34259C15.0702 3.87936 15.3415 3.23668 15.3538 2.56018C15.3661 1.88367 15.1185 1.23049 14.6671 0.748729C14.2157 0.266754 13.5986 -0.00312451 12.9554 2.72996e-05C12.3039 0.0207112 11.6849 0.304047 11.2263 0.791594L2.22542 10.2609L1.62594 14.4426L5.60065 13.8119L14.6017 4.34259ZM11.8589 1.45705C12.1333 1.13743 12.5204 0.950277 12.9297 0.939309C13.339 0.92831 13.7347 1.0946 14.0241 1.39926C14.3135 1.70377 14.4716 2.12006 14.4611 2.55064C14.4508 2.98122 14.2728 3.38852 13.969 3.6771L13.192 4.49476L11.0822 2.27437L11.8589 1.45705ZM2.6922 13.3213L3.0662 10.7078L10.4494 2.94004L12.5592 5.16042L5.17602 12.9282L2.6922 13.3213ZM17 15.0587V16H0V15.0587H17Z" fill="white"/>
</svg>
