<svg width="20" height="18" viewBox="0 0 20 18" fill="none" xmlns="http://www.w3.org/2000/svg">
<path d="M19.5666 1.72107C19.5564 0.768334 18.7778 0.00206058 17.8292 0H17.3395H16.2639H14.7333H12.8771H10.8364H8.72192H6.67303H4.82904H3.30058H2.22698H1.73933C0.790717 0.00409793 0.0100948 0.770357 0.00188991 1.72107C-0.000158943 1.89522 0.00188991 2.06938 0.00188991 2.2415V3.5917V5.45821V7.55832V9.57851V11.2155V12.1642C0.00188991 12.2256 -0.000158924 12.2871 0.00393878 12.3486C0.0285252 12.9304 0.342001 13.4693 0.843981 13.7705C1.1759 13.9692 1.54061 14.0122 1.91556 14.0122H2.72282H4.0505H5.76539H7.73845H9.82829H11.9243H13.8891H15.5836H16.8928H17.6795C18.0873 14.0122 18.4909 13.9508 18.831 13.7029C19.2879 13.3709 19.5666 12.8608 19.5706 12.2912V12.1437V11.1561V9.49652V7.47633V5.38035V3.51998V2.19848C19.5665 2.04072 19.5665 1.8809 19.5665 1.7211C19.5665 1.50596 19.378 1.30108 19.1567 1.3113C18.9355 1.32155 18.747 1.4916 18.747 1.7211V2.22305V3.54456V5.38035V7.45584V9.45962V11.111V12.1211V12.2912C18.747 12.3342 18.7306 12.3957 18.7388 12.4366C18.7388 12.4366 18.7531 12.3526 18.7429 12.3977C18.7408 12.412 18.7388 12.4243 18.7347 12.4387C18.7285 12.4715 18.7203 12.5022 18.7121 12.5329C18.7039 12.5596 18.6957 12.5862 18.6875 12.6108C18.6834 12.6231 18.6773 12.6374 18.6732 12.6497C18.6507 12.7112 18.6855 12.6292 18.6834 12.6272C18.6937 12.6395 18.6158 12.7563 18.6076 12.7706C18.5933 12.7931 18.5769 12.8157 18.5626 12.8382C18.5544 12.8505 18.538 12.8874 18.5626 12.8403C18.5871 12.7931 18.5646 12.8382 18.5523 12.8505C18.5134 12.8935 18.4745 12.9366 18.4314 12.9755C18.4212 12.9837 18.3823 13.0288 18.37 13.0267C18.3659 13.0267 18.4396 12.9796 18.3986 13.0042C18.3843 13.0124 18.37 13.0247 18.3536 13.0349C18.3085 13.0656 18.2614 13.0902 18.2122 13.1148C18.2081 13.1169 18.1774 13.1332 18.1753 13.1332C18.1733 13.1312 18.2532 13.1025 18.2101 13.1189C18.1753 13.1312 18.1425 13.1435 18.1057 13.1537C18.0524 13.1701 17.9971 13.1804 17.9438 13.1906C17.8987 13.2009 17.9827 13.1845 17.9827 13.1865C17.9725 13.1845 17.952 13.1886 17.9397 13.1906C17.9069 13.1927 17.8721 13.1947 17.8393 13.1947H17.8168H17.6447H16.8395H15.5343H13.8502H11.9037H9.83642H7.75681H5.80832H4.10572H2.76987H1.93803H1.74749H1.7147H1.69831C1.66963 13.1947 1.64095 13.1927 1.61226 13.1906C1.51596 13.1824 1.66348 13.2029 1.59587 13.1906C1.54055 13.1804 1.48728 13.1681 1.43401 13.1517C1.40737 13.1435 1.38279 13.1332 1.35615 13.125C1.33771 13.1189 1.31722 13.0984 1.3541 13.125C1.39918 13.1578 1.35615 13.125 1.34181 13.1169C1.29059 13.0882 1.23937 13.0615 1.19019 13.0287C1.17995 13.0206 1.16766 13.0124 1.15741 13.0062C1.11643 12.9816 1.19019 13.0287 1.1861 13.0287C1.17175 13.0308 1.12668 12.9775 1.11438 12.9673C1.07545 12.9304 1.03858 12.8915 1.00375 12.8505C0.999648 12.8464 0.97711 12.8239 0.97711 12.8198C0.97711 12.8157 1.02423 12.8894 0.999648 12.8484C0.983257 12.8218 0.962768 12.7972 0.948426 12.7706C0.932035 12.744 0.915644 12.7153 0.901302 12.6886C0.893107 12.6722 0.84803 12.6046 0.880813 12.6518C0.913595 12.6948 0.874666 12.6333 0.866471 12.6108C0.856227 12.58 0.845982 12.5493 0.837787 12.5186C0.831641 12.4919 0.825494 12.4653 0.819347 12.4366C0.817298 12.4223 0.815249 12.41 0.811152 12.3956C0.800907 12.3506 0.817298 12.4346 0.815249 12.4346C0.823445 12.3956 0.807054 12.3321 0.807054 12.2912V12.1498V11.1889V9.56001V7.56852V5.49917V3.63266V2.2804C0.807054 2.09395 0.805005 1.9075 0.807054 1.72311V1.70671C0.807054 1.67803 0.809103 1.64935 0.811152 1.62066C0.819347 1.52436 0.798858 1.67188 0.811152 1.60427C0.821396 1.54895 0.833689 1.49568 0.850082 1.44241C0.858277 1.41577 0.868522 1.39119 0.876717 1.36455C0.882864 1.34611 0.903352 1.32562 0.876717 1.3625C0.843935 1.40758 0.876717 1.36455 0.884913 1.35021C0.911548 1.29899 0.940233 1.24777 0.973015 1.19859C0.981211 1.18835 0.989406 1.17606 0.995553 1.16581C1.02014 1.12483 0.973015 1.19859 0.973015 1.1945C0.970967 1.18015 1.02424 1.13508 1.03448 1.12278C1.07136 1.08385 1.11029 1.04698 1.15127 1.01215C1.15536 1.00805 1.1779 0.98551 1.182 0.98551C1.18815 0.98551 1.11029 1.03058 1.15332 1.00805C1.18405 0.991657 1.21273 0.967069 1.24346 0.948632C1.266 0.93429 1.29059 0.921997 1.31518 0.909702C1.33157 0.901507 1.39918 0.856431 1.35206 0.889214C1.30903 0.921996 1.3705 0.883067 1.39304 0.874872C1.42377 0.864627 1.4545 0.854383 1.48523 0.846188C1.51187 0.840041 1.5385 0.833895 1.56719 0.827748C1.58153 0.825699 1.59382 0.82365 1.60817 0.819552C1.65324 0.809308 1.56924 0.825699 1.56924 0.82365C1.60817 0.831846 1.67168 0.815455 1.71266 0.815455H1.73929H2.25358H3.3313H4.85567H6.68738H8.7178H10.8015H12.8237H14.6698H16.1941H17.2821H17.8107H17.8394H17.8701C17.8988 0.815455 17.9275 0.817503 17.9562 0.819552C18.0361 0.82365 17.8824 0.80521 17.9582 0.819552C18.0176 0.831846 18.075 0.844139 18.1324 0.862577C18.159 0.870773 18.1836 0.881017 18.2102 0.889213C18.2532 0.903555 18.1733 0.87487 18.1754 0.87487C18.1774 0.872822 18.2082 0.891261 18.2123 0.89331C18.2594 0.917897 18.3086 0.944533 18.3536 0.973216C18.368 0.98346 18.4417 1.02239 18.3885 0.995754C18.3393 0.971167 18.4049 1.0101 18.4192 1.02239C18.4622 1.06132 18.5032 1.10229 18.5421 1.14532C18.5503 1.15556 18.5585 1.16581 18.5688 1.17605C18.5995 1.20883 18.5421 1.14737 18.5462 1.14532C18.5544 1.14532 18.5872 1.20474 18.5913 1.21293C18.62 1.25801 18.6446 1.30718 18.6712 1.3543C18.706 1.42192 18.6466 1.28464 18.6733 1.35635C18.6814 1.38299 18.6917 1.40757 18.6999 1.43421C18.7183 1.49157 18.7286 1.55099 18.7409 1.61041C18.7511 1.65548 18.7347 1.57148 18.7368 1.57148C18.7347 1.58172 18.7388 1.60221 18.7409 1.61451C18.7429 1.64729 18.745 1.68212 18.745 1.7149C18.747 1.93003 18.9314 2.13492 19.1548 2.12469C19.376 2.1206 19.5686 1.95054 19.5666 1.72108L19.5666 1.72107Z" fill="#838080"/>
<path d="M19.1573 6.84327H18.6573H17.2948H15.2788H12.8181H10.1238H7.40289H4.86433H2.71916H1.17634C0.932528 6.84327 0.686675 6.83917 0.442852 6.84327H0.412119C0.196987 6.84327 -0.00790182 7.03177 0.00232614 7.25306C0.0125541 7.47436 0.182627 7.66286 0.412119 7.66286H0.912053H2.27455H4.29062H6.75132H9.44558H12.1665H14.705H16.8502H18.393C18.6368 7.66286 18.8827 7.66696 19.1265 7.66286H19.1573C19.3724 7.66286 19.5773 7.47436 19.567 7.25306C19.5568 7.03179 19.3867 6.84327 19.1573 6.84327Z" fill="#838080"/>
<path d="M0.410161 10.45H0.910095H2.27259H4.28866H6.74936H9.44363H12.1645H14.7031H16.8483H18.3911C18.6349 10.45 18.8807 10.4541 19.1246 10.45H19.1553C19.3704 10.45 19.5753 10.2615 19.5651 10.0402C19.5549 9.81888 19.3848 9.63038 19.1553 9.63038H18.6554H17.2929H15.2768H12.8161H10.1218H7.40093H4.86237H2.7172H1.17438C0.93057 9.63038 0.684716 9.62629 0.440894 9.63038H0.410161C0.195029 9.63038 -0.00986044 9.81888 0.000367525 10.0402C0.010612 10.2615 0.180668 10.45 0.410161 10.45Z" fill="#838080"/>
<path d="M13.9153 17.2375C13.4666 17.0039 13.02 16.7703 12.5712 16.5347C11.8665 16.1659 11.1637 15.7991 10.4589 15.4303C10.3052 15.3504 10.1556 15.2644 9.99991 15.1906C9.85444 15.121 9.72126 15.1189 9.57783 15.1906C9.56143 15.1988 9.54504 15.207 9.5307 15.2152C9.4508 15.2562 9.37089 15.2992 9.29303 15.3402C8.62304 15.6905 7.95103 16.0409 7.28104 16.3913C6.75245 16.6679 6.21359 16.9322 5.69316 17.221C5.68497 17.2251 5.67472 17.2313 5.66448 17.2354C5.86937 17.3542 6.07629 17.471 6.28119 17.5898V16.2417V14.0945V13.6028C6.14392 13.74 6.00869 13.8753 5.8714 14.0126H6.64996H8.52059H10.7846H12.7433C13.0609 14.0126 13.3805 14.0269 13.6961 14.0126H13.7104C13.5731 13.8753 13.4379 13.7401 13.3006 13.6028V14.9509V17.0981V17.5898C13.3006 17.805 13.4891 18.0099 13.7104 17.9996C13.9317 17.9894 14.1202 17.8193 14.1202 17.5898V16.2417V14.0945V13.6028C14.1202 13.3815 13.9317 13.193 13.7104 13.193H12.9318H11.0612H8.79719H6.83848C6.5209 13.193 6.20127 13.1848 5.88574 13.193H5.8714C5.65012 13.193 5.4616 13.3815 5.4616 13.6028V14.9509V17.0981V17.5898C5.4616 17.9115 5.80581 18.0856 6.07832 17.9443C6.52085 17.7128 6.96137 17.4813 7.40394 17.2518C8.10671 16.883 8.81151 16.5162 9.51428 16.1474C9.67409 16.0634 9.83595 15.9794 9.99578 15.8954H9.5819C10.0244 16.1269 10.465 16.3584 10.9075 16.5879C11.6103 16.9567 12.3151 17.3235 13.0179 17.6923C13.1777 17.7763 13.3395 17.8603 13.4994 17.9443C13.6899 18.0426 13.9542 17.9996 14.0607 17.7968C14.1611 17.6103 14.1181 17.344 13.9153 17.2374L13.9153 17.2375Z" fill="#838080"/>
</svg>
