<svg width="19" height="19" viewBox="0 0 19 19" fill="none" xmlns="http://www.w3.org/2000/svg">
<path d="M0 17.1176C0 18.1523 0.846524 18.9988 1.88116 18.9988H4.32668L0 14.6721V17.1176Z" fill="white"/>
<path d="M18.4357 3.57421L15.4258 0.564349C14.6733 -0.188116 13.5446 -0.188116 12.7922 0.564349L12.604 0.752465C12.2278 1.1287 12.2278 1.69305 12.604 2.06928L16.9307 6.39596C17.307 6.77219 17.8713 6.77219 18.2475 6.39596L18.4357 6.20784C19.1881 5.45537 19.1881 4.32668 18.4357 3.57421Z" fill="white"/>
<path d="M11.2873 3.38583C10.9111 3.0096 10.3467 3.0096 9.9705 3.38583L1.4112 11.9451C0.940909 12.4154 0.940909 12.9798 1.31714 13.356L5.64382 17.6827C6.02005 18.0589 6.5844 18.0589 6.96063 17.6827L15.5199 9.12338C15.8962 8.74715 15.8962 8.1828 15.5199 7.80657L11.2873 3.38583Z" fill="white"/>
</svg>
