<svg width="75" height="85" viewBox="0 0 75 85" fill="none" xmlns="http://www.w3.org/2000/svg">
<path d="M74.3401 47.812C74.3401 57.6796 70.4935 66.6561 64.2211 73.3198C61.5071 76.2003 58.3279 78.648 54.8254 80.5512C51.1671 82.5313 47.1414 83.911 42.8738 84.5555C41.0179 84.8556 39.1039 84.9999 37.1689 84.9999C25.194 84.9999 14.5424 79.3367 7.74914 70.5394C2.89081 64.2526 0 56.365 0 47.812C0 33.7074 7.86077 21.427 19.424 15.1193C22.059 13.6953 24.8824 12.5715 27.8523 11.8037C30.8314 11.0359 33.9455 10.6241 37.1689 10.6241C38.0596 10.6241 38.948 10.6567 39.8271 10.7241C48.2321 11.3128 55.8719 14.7051 61.8094 19.9682C69.4934 26.7761 74.3401 36.7322 74.3401 47.812Z" fill="#D4E9DC"/>
<path d="M11.9558 22.5924C14.0722 21.0987 16.5048 19.9144 18.0375 17.825C19.984 15.1725 20.098 11.5847 21.6469 8.68098C23.6563 4.91636 27.8983 2.76415 32.1264 2.18712C33.0869 2.05682 34.052 2.01262 35.0172 2.00331C35.4219 1.75202 35.9382 1.52168 36.5242 1.29831C36.5428 1.28901 36.5568 1.27272 36.5754 1.26341C39.6639 -0.283852 43.4268 -0.418802 46.6176 0.907426C49.8085 2.23365 52.3714 4.99314 53.4551 8.27614C53.8714 9.53489 54.097 10.8983 54.8738 11.9733C56.6552 14.4326 60.8484 14.7653 61.7229 17.6761C62.2206 19.328 61.3484 21.1592 61.8368 22.8158C62.4159 24.7819 64.7974 25.3054 66.5463 26.371C70.3883 28.714 69.3115 32.3786 67.8324 34.3935C67.2022 35.4987 66.2161 37.5392 65.6835 40.2987C65.4347 41.9042 65.2486 43.5026 65.5579 45.0848C66.0556 47.6279 67.7487 49.7359 69.0301 51.9905C70.3093 54.2427 71.1837 57.086 69.9627 59.3708C67.7789 63.4565 61.2438 62.363 57.8948 65.5622C56.0994 67.2747 55.5738 69.8806 54.6459 72.1817C50.8085 81.6747 37.9917 86.1746 29.0123 81.2559C21.4469 77.112 18.0444 67.1607 20.5469 59.0265C17.7816 55.6411 16.1281 51.3832 16.3723 46.9927C16.5095 44.5147 17.1444 41.9344 16.2513 39.6193C14.5815 35.2986 8.20451 33.5024 7.96962 28.8745C7.83938 26.2872 9.83946 24.0885 11.9558 22.5947V22.5924Z" fill="#163B61"/>
<path d="M46.7547 70.0926C46.6872 70.2485 46.6221 70.3928 46.5663 70.537C45.2872 73.6409 43.3522 77.5893 42.9406 82.3847C42.8754 83.085 42.8522 83.8086 42.8754 84.5532C41.0195 84.8533 39.1055 84.9976 37.1706 84.9976C25.1957 84.9976 14.5441 79.3344 7.75081 70.537C8.86248 68.101 10.6532 65.8766 12.2882 63.9524C14.4348 61.4279 16.5791 58.9128 18.7373 56.3999C20.2932 54.5758 21.8514 52.74 23.4072 50.9158C23.7072 50.5715 24.0073 50.2807 24.3189 50.048C25.3422 49.2918 26.4539 49.1359 27.733 49.0126C28.0446 48.9567 30.6564 48.7567 31.7913 48.645C32.0355 48.6217 32.2146 48.6124 32.2797 48.6008C33.8355 48.4239 36.6822 48.5007 39.7172 48.9009C43.6196 49.4128 47.8338 50.4691 50.0571 52.2048C50.0571 52.2048 50.0687 52.2048 50.0687 52.2165C50.1804 52.2933 50.2804 52.384 50.3804 52.4724C55.4387 57.0328 49.0245 65.0413 46.7547 70.0926Z" fill="#6FB489"/>
<path d="M35.5333 33.386L41.6382 33.2906L39.494 50.6642C39.494 50.6642 30.0168 59.1428 24.9794 56.4694C21.7142 54.736 31.6727 49.0913 31.6727 49.0913L35.5333 33.386Z" fill="#FDCBB2"/>
<path d="M41.3868 35.326L33.6517 41.0381L32.4795 45.8055L40.6496 41.2964L41.3868 35.326Z" fill="#EAB7A0"/>
<path d="M47.8643 33.0533C48.9015 30.7894 48.9317 27.4924 47.0247 26.8735C46.4549 26.6897 45.7502 26.7548 45.02 26.9992C40.3686 26.1429 48.4154 12.1594 36.9103 9.6209C30.5078 8.20859 26.2448 9.33937 21.7237 25.9498C19.9353 32.5204 21.119 40.7454 27.1216 43.3025C31.6334 45.2243 38.1918 41.3294 41.9152 36.4852C44.1153 36.3595 46.5503 35.9268 47.8666 33.0556L47.8643 33.0533Z" fill="#FDCBB2"/>
<path d="M36.8424 22.4857C35.961 20.8988 33.9772 19.9263 32.2725 20.8337C31.9562 21.0012 32.2376 21.4828 32.5539 21.313C33.9935 20.5475 35.6354 21.4549 36.3633 22.7649C36.5378 23.0766 37.0168 22.7974 36.8424 22.4833V22.4857Z" fill="#001848"/>
<path d="M35.6379 23.1465C35.824 22.3997 35.5203 21.6808 34.9595 21.5409C34.3986 21.401 33.7931 21.8931 33.607 22.6399C33.4209 23.3868 33.7246 24.1057 34.2854 24.2455C34.8463 24.3854 35.4518 23.8934 35.6379 23.1465Z" fill="#001848"/>
<path d="M28.4702 21.4892C28.0446 20.7656 27.4445 20.0606 26.6631 19.7093C26.0212 19.4208 25.3235 19.4091 24.7537 19.8582C24.6351 19.9513 24.6561 20.1537 24.7537 20.2514C24.87 20.3677 25.0282 20.3445 25.1468 20.2514C25.5282 19.9489 26.0561 20.0187 26.491 20.2398C27.1399 20.5702 27.6259 21.1495 27.9911 21.7684C28.1725 22.0779 28.6539 21.7963 28.4702 21.4869V21.4892Z" fill="#001848"/>
<path d="M27.2547 22.1088C27.3772 21.3607 27.1528 20.7011 26.7535 20.6357C26.3542 20.5703 25.9313 21.1238 25.8088 21.872C25.6863 22.6202 25.9107 23.2797 26.31 23.3451C26.7093 23.4105 27.1323 22.857 27.2547 22.1088Z" fill="#001848"/>
<path d="M29.5211 22.8609C27.6629 27.4213 24.7418 26.9024 24.4139 28.3194C24.0883 29.7364 28.6024 30.1947 28.6024 30.1947L29.5211 22.8609Z" fill="#EAB7A0"/>
<path d="M32.2636 32.4708C31.9241 33.0594 31.4613 33.5829 30.8845 33.9855C30.3171 34.3996 29.5868 34.6346 28.8519 34.5951C28.1193 34.5532 27.4262 34.2484 26.889 33.804C26.3448 33.3619 25.9122 32.8198 25.589 32.2218C26.0936 32.6755 26.5867 33.1199 27.1332 33.4526C27.6821 33.7807 28.2705 34.0134 28.8798 34.039C30.1194 34.132 31.2566 33.3479 32.2613 32.4708H32.2636Z" fill="#CA807A"/>
<path d="M39.442 18.8363C39.442 18.8363 37.114 17.0122 34.4325 16.6655C31.751 16.3188 31.0719 17.175 31.0719 17.175C31.0719 17.175 31.6999 15.202 34.0255 15.2764C37.6606 15.3928 39.4443 18.834 39.4443 18.834L39.442 18.8363Z" fill="#005C82"/>
<path d="M24.3537 17.644C24.3537 17.644 24.7746 16.5179 26.5933 16.6133C28.3515 16.7063 29.6329 17.4137 29.6329 17.4137C29.6329 17.4137 28.712 16.2224 27.2491 15.6849C24.0676 14.5169 24.3537 17.644 24.3537 17.644Z" fill="#005C82"/>
<path d="M44.2404 31.5823C43.8986 31.217 43.7869 30.6888 43.8311 30.1886C43.866 29.679 44.0916 29.2021 44.3846 28.8019C44.687 28.404 45.08 28.1085 45.4986 27.8875C45.9242 27.6804 46.3824 27.5571 46.8708 27.5664C46.587 27.9736 46.294 28.283 46.0149 28.5855C45.7591 28.9042 45.4754 29.1695 45.2684 29.4766C44.8149 30.0676 44.4683 30.6469 44.2428 31.5823H44.2404Z" fill="#CA807A"/>
<path d="M64.2205 73.3179C61.5064 76.1984 58.3272 78.6461 54.8247 80.5493L51.8572 76.7009L46.7523 70.0931L41.394 63.1408C40.3149 61.7285 39.8148 59.9718 39.9823 58.2129L40.0265 57.8243C40.3823 54.176 43.4406 51.4956 46.964 51.4956C47.3524 51.4956 47.7431 51.5282 48.1431 51.5957C48.8105 51.7074 49.4548 51.9191 50.0548 52.2076C50.0548 52.2076 50.0664 52.2076 50.0664 52.2192C51.213 52.7753 52.1898 53.6432 52.8898 54.7437L58.983 64.7323L64.2205 73.3202V73.3179Z" fill="#6FB489"/>
</svg>
