<svg width="130" height="138" viewBox="0 0 130 138" fill="none" xmlns="http://www.w3.org/2000/svg">
<path d="M37 126C37.025 125.997 37.0501 125.994 37.0754 125.991C37.8538 125.813 38.6771 122.953 39 121.5L74 120.5H103V126C64.136 124.505 44.3052 125.162 37.0754 125.991C37.0502 125.997 37.0251 126 37 126Z" fill="#70BEB0"/>
<path d="M103.608 121.5H16.6484V113.326L18.2889 83.7345L59.1964 48C59.1964 48 92.0482 51.1189 99.4219 65.3155L100.426 78.3874L103.608 119.852V121.5Z" fill="#6FB489"/>
<path d="M70.9489 84.2035H45.9998V120.848H70.9489V84.2035Z" fill="white"/>
<path opacity="0.4" d="M49.1187 117.729H67.0509V95.8775C58.0796 93.12 57.4486 99.0027 49.1187 95.8775V117.729Z" fill="#00B3F3"/>
<path d="M35.708 128.644C39.9828 124.341 41.3434 107.06 37.508 99.7966L29.6272 114.072L35.708 128.644Z" fill="#4A8D81"/>
<path d="M63.1324 99.5736C61.9651 97.0089 47.5125 101.04 47.5125 101.04C47.5125 101.04 57.8672 93.6811 57.4532 92.7564C55.6104 88.6424 33.3666 102.651 33.3666 102.651L31.9658 125.525C38.1431 121.474 45.7803 115.551 45.7803 115.551C45.7803 115.551 59.0702 115.651 60.5286 114.725C61.9869 113.799 61.9853 112.462 60.1115 111.433C60.1115 111.433 64.2888 110.682 62.2639 108.411C61.5138 107.571 47.8285 106.391 47.8285 106.391L56.8851 103.305C56.8851 103.305 63.5619 100.517 63.1324 99.5736Z" fill="#FFBA9A"/>
<path d="M43.0671 102.133C43.0209 102.132 42.9768 102.115 42.943 102.088C42.9091 102.06 42.8877 102.022 42.8827 101.982C42.8777 101.941 42.8895 101.9 42.9158 101.867C42.9421 101.833 42.9812 101.809 43.026 101.799L57.4656 99.0209C57.4904 99.016 57.5161 99.0157 57.5411 99.0199C57.5662 99.0241 57.5899 99.0328 57.611 99.0454C57.6321 99.058 57.6501 99.0743 57.6639 99.0932C57.6776 99.1122 57.6868 99.1334 57.691 99.1556C57.6963 99.1777 57.6965 99.2004 57.6917 99.2226C57.6869 99.2447 57.6771 99.2658 57.6628 99.2845C57.6486 99.3032 57.6303 99.3192 57.609 99.3316C57.5877 99.3439 57.5638 99.3523 57.5387 99.3564L43.1006 102.136L43.0671 102.133Z" fill="#BF643A"/>
<path d="M59.836 108.371H59.8192L43.8353 106.535C43.785 106.529 43.7385 106.497 43.7059 106.446C43.6734 106.395 43.6576 106.329 43.6618 106.263C43.6672 106.197 43.6915 106.137 43.7298 106.094C43.7681 106.052 43.8173 106.03 43.8673 106.034L59.8512 107.872C59.9016 107.874 59.9492 107.903 59.9835 107.952C60.0178 108.001 60.0359 108.066 60.0339 108.132C60.0318 108.199 60.0099 108.261 59.9727 108.306C59.9356 108.352 59.8864 108.375 59.836 108.373V108.371Z" fill="#BF643A"/>
<path d="M59.8262 111.49H59.8072L44.6055 110.266C44.556 110.259 44.5117 110.236 44.4813 110.202C44.451 110.168 44.4368 110.126 44.4416 110.084C44.4464 110.042 44.4698 110.003 44.5073 109.975C44.5447 109.947 44.5934 109.932 44.6437 109.932L59.8437 111.157C59.8964 111.159 59.9461 111.179 59.9817 111.211C60.0173 111.244 60.036 111.287 60.0337 111.332C60.0314 111.376 60.0082 111.418 59.9693 111.448C59.9304 111.478 59.8789 111.493 59.8262 111.491V111.49Z" fill="#BF643A"/>
<path d="M26.1958 105.568L58.4746 48.339C58.4746 48.339 26.7906 55.7025 14.5858 71.8537C2.38105 88.0049 -8.41023 133.847 9.42245 137.649C18.1088 139.5 28.0048 133.667 35.2026 128.838C32.0398 120.206 34.5418 107.839 37.5972 99.5528L26.1958 105.568Z" fill="#6FB489"/>
<path opacity="0.6" d="M103 126C91.0332 117.27 92.5157 98.2231 95.7481 74.0335L100.796 84.1206L103 126Z" fill="#4A8D81"/>
<path d="M65.3526 68.6102C61.4842 68.6102 57.3822 66.9472 53.0171 63.6228L53.3652 63.1526C61.8432 69.6102 69.2504 69.6165 76.0092 63.1745L76.4069 63.6009C72.9037 66.941 69.2365 68.6102 65.3526 68.6102Z" fill="#428175"/>
<path d="M37.8412 99.2818L10.7634 112.331L11.0153 112.853L38.093 99.8044L37.8412 99.2818Z" fill="#428175"/>
<path d="M35.4173 128.482L18.686 136.798L18.9442 137.318L35.6755 129.001L35.4173 128.482Z" fill="#428175"/>
<path d="M30.0851 85.0493L26.1753 104.207L26.7438 104.323L30.6535 85.1653L30.0851 85.0493Z" fill="#428175"/>
<path d="M95.6435 98.2373L91.2202 74.1846L91.339 74.0739L105.658 60.8136L106.034 61.2501L91.8334 74.3997L96.1981 98.1282L95.6435 98.2373Z" fill="#804327"/>
<path d="M74.8466 31.9662V51.6691C74.863 53.0685 74.6129 54.4575 74.1109 55.7554C73.6089 57.0532 72.865 58.2342 71.9222 59.2299C70.9795 60.2256 69.8567 61.0161 68.619 61.5556C67.3813 62.0951 66.0532 62.373 64.7118 62.373C63.3703 62.373 62.0423 62.0951 60.8045 61.5556C59.5668 61.0161 58.444 60.2256 57.5013 59.2299C56.5586 58.2342 55.8146 57.0532 55.3126 55.7554C54.8107 54.4575 54.5606 53.0685 54.5769 51.6691V31.9662H74.8466Z" fill="#FFBA9A"/>
<path d="M74.8476 31.9662V49.1187C68.9531 47.3909 62.9119 42.5452 57.6951 35.5899L63.0466 31.9662H74.8476Z" fill="#BF643A"/>
<path d="M77.8911 39.7554C74.6447 41.6698 65.0718 40.0142 57.6328 35.6241L53.0171 15.5337L64.7487 5.45752L75.3263 6.81393C76.9218 11.1544 78.9266 15.3911 80.5421 19.3704C81.5498 21.8507 82.4037 24.2303 82.9115 26.4703C84.15 31.9114 83.3884 36.5201 77.8911 39.7554Z" fill="#FFBA9A"/>
<path d="M76.872 20.0678C77.4006 19.8229 77.5647 19.0532 77.2383 18.3486C76.912 17.6439 76.2188 17.2712 75.6902 17.516C75.1615 17.7609 74.9975 18.5306 75.3238 19.2352C75.6501 19.9399 76.3433 20.3126 76.872 20.0678Z" fill="#013D55"/>
<path d="M69.9975 22.0983C70.3359 22.9128 70.1587 23.8005 69.6155 24.0827C69.0724 24.3649 68.3439 23.9362 68.0039 23.1217C67.6638 22.3073 67.8427 21.4196 68.3842 21.1374C68.9257 20.8551 69.6574 21.2856 69.9975 22.0983Z" fill="#013D55"/>
<path d="M75.3399 26.5084C75.2693 26.5085 75.2009 26.4812 75.1464 26.4311C75.092 26.381 75.055 26.3113 75.0418 26.234C75.0286 26.1568 75.0401 26.0768 75.0742 26.0079C75.1083 25.9391 75.163 25.8857 75.2287 25.8569C75.2384 25.8569 76.2698 25.385 76.5663 24.283C76.7549 23.5795 75.3029 22.334 74.2119 21.6754C74.1459 21.6301 74.0981 21.5585 74.0781 21.4751C74.0581 21.3918 74.0676 21.3031 74.1045 21.2273C74.1415 21.1515 74.203 21.0943 74.2767 21.0675C74.3503 21.0407 74.4303 21.0463 74.5003 21.0831C75.0112 21.3918 77.5397 23.0052 77.1449 24.4751C76.7629 25.8982 75.5027 26.4617 75.4495 26.4851C75.4145 26.4999 75.3774 26.5078 75.3399 26.5084Z" fill="#013D55"/>
<path d="M74.5651 29.6271C73.6504 29.6109 72.7481 29.4362 71.9088 29.1127C71.8735 29.0999 71.8415 29.0811 71.8144 29.0572C71.7873 29.0334 71.7658 29.005 71.7511 28.9738C71.7363 28.9426 71.7287 28.9091 71.7285 28.8752C71.7284 28.8414 71.7357 28.8078 71.7501 28.7765C71.7646 28.7452 71.7858 28.7167 71.8126 28.6926C71.8395 28.6686 71.8714 28.6495 71.9065 28.6364C71.9417 28.6233 71.9794 28.6165 72.0175 28.6163C72.0556 28.6162 72.0934 28.6227 72.1286 28.6356C74.2695 29.4153 75.9722 29.2544 77.4892 28.1281C77.5184 28.1063 77.5521 28.0899 77.5884 28.0797C77.6248 28.0695 77.663 28.0658 77.7009 28.0687C77.7389 28.0717 77.7758 28.0812 77.8096 28.0968C77.8434 28.1124 77.8734 28.1338 77.8979 28.1597C77.9224 28.1856 77.9409 28.2156 77.9524 28.2479C77.9638 28.2801 77.968 28.3141 77.9647 28.3478C77.9614 28.3815 77.9507 28.4143 77.9331 28.4443C77.9155 28.4744 77.8914 28.501 77.8623 28.5228C76.8623 29.2585 75.7787 29.6271 74.5651 29.6271Z" fill="#013D55"/>
<path d="M69.1908 18.0857C69.8798 18.6022 68.5952 19.2443 68.1564 19.5096C67.0534 20.1728 66.0155 20.901 64.9194 21.5699C64.7711 21.6701 64.6032 21.7502 64.4225 21.807C64.3534 21.8297 64.2775 21.8361 64.204 21.8253C64.1455 21.811 64.0926 21.7848 64.0506 21.7491C64.0086 21.7135 63.9788 21.6697 63.9644 21.6221C63.7229 20.949 64.9106 20.1361 65.4269 19.741C66.026 19.281 66.6727 18.8661 67.3212 18.4498C67.7511 18.1746 68.6375 17.6934 69.1714 18.0716L69.1908 18.0857Z" fill="#013D55"/>
<path d="M72.5118 16.0196C72.5913 16.6251 73.9003 16.2889 74.3869 16.1957C75.6132 15.9685 76.8606 15.7947 78.0853 15.5675C78.2601 15.5416 78.4278 15.496 78.5817 15.4323C78.6415 15.4077 78.6904 15.3719 78.7228 15.329C78.7443 15.2915 78.751 15.2507 78.7425 15.2107C78.7339 15.1708 78.7103 15.1332 78.6741 15.1018C78.1989 14.6474 76.7909 14.8496 76.1404 14.9166C75.3829 14.995 74.6416 15.1188 73.8987 15.2438C73.4121 15.3267 72.468 15.5391 72.5102 15.9981C72.5102 16.0083 72.5118 16.014 72.5118 16.0196Z" fill="#013D55"/>
<path opacity="0.4" d="M64.7118 33.5254C66.8648 33.5254 68.6101 31.78 68.6101 29.6271C68.6101 27.4741 66.8648 25.7288 64.7118 25.7288C62.5588 25.7288 60.8135 27.4741 60.8135 29.6271C60.8135 31.78 62.5588 33.5254 64.7118 33.5254Z" fill="#FF9498"/>
<path opacity="0.4" d="M82.6442 26.5085C82.5636 26.5085 82.4859 26.5085 82.4053 26.5085C81.6184 26.5077 80.8526 26.2422 80.2213 25.7513C79.5901 25.2604 79.127 24.5703 78.9006 23.783C78.6743 22.9957 78.6967 22.1533 78.9645 21.3803C79.2324 20.6074 79.7314 19.9451 80.3877 19.4916C81.3401 21.9402 82.1533 24.2894 82.6442 26.5085Z" fill="#FF9498"/>
<path d="M28.781 7.18841C28.0455 8.24096 27.2995 9.28754 26.7212 10.4251C26.401 10.9767 26.1534 11.5626 25.8861 12.1366L25.5508 13.0311C25.433 13.3292 25.3681 13.6274 25.2745 13.9256C24.9528 15.1362 24.7792 16.3885 24.9045 17.614C24.9638 18.2222 25.1034 18.8201 25.3198 19.3926C25.5466 19.9525 25.8644 20.4722 26.2606 20.9311C27.0552 21.8538 28.1613 22.4613 29.3744 22.6411C30.5901 22.8156 31.8495 22.6009 33.0123 22.1447C34.1843 21.6646 35.2586 20.9792 36.1835 20.1216C37.1318 19.2618 37.9876 18.3076 38.7371 17.2741L38.9832 17.4351C38.2952 18.5472 37.4788 19.5768 36.5505 20.5032C35.6018 21.4382 34.4896 22.1958 33.2675 22.7395C32.0139 23.2923 30.6317 23.4984 29.2687 23.3359C28.5818 23.2373 27.9175 23.0214 27.3056 22.6978L27.073 22.58L26.8571 22.4309C26.7151 22.331 26.5686 22.2371 26.4312 22.1328C26.1634 21.9126 25.9167 21.6686 25.6943 21.4037C25.2497 20.8829 24.8947 20.2937 24.6433 19.6594C24.4092 19.0249 24.2604 18.3628 24.2008 17.69C24.0969 16.3629 24.2538 15.0284 24.6629 13.7601C24.7701 13.45 24.8501 13.128 24.9815 12.8268L25.3575 11.9174C25.6331 11.3252 25.9396 10.7475 26.2757 10.1865C26.947 9.07149 27.708 8.01155 28.5514 7.01697L28.781 7.18841Z" fill="#013D55"/>
<path d="M45.9805 13.7856C42.6655 16.6541 38.8505 19.9011 34.5415 20.8666C27.5981 22.4239 24.8831 13.7592 27.4727 8.12804C28.728 5.4028 31.3384 2.9532 34.2624 2.44865C41.4655 1.20594 49.3402 10.8751 45.9805 13.7856Z" fill="#013D55"/>
<path d="M44.4409 7.02808C43.4816 7.67141 42.6562 8.51097 42.0143 9.49641C41.4066 10.4295 40.9146 11.4397 40.5502 12.5027C40.1751 13.5815 39.8939 14.6936 39.7101 15.8254C39.5196 17.0391 39.395 18.2631 39.3369 19.4915C38.6494 18.3966 38.3079 17.0881 38.2218 15.7653C38.1411 14.4239 38.3295 13.0797 38.7748 11.8192C39.2153 10.5312 39.951 9.37607 40.9173 8.45528C41.8904 7.54706 43.1823 6.92523 44.4409 7.02808Z" fill="#EF6354"/>
<path d="M61.2059 25.4336C65.8522 42.6109 64.8239 53.8609 58.4714 64.7119H49.0036L45.4206 59.7866L45.5836 64.7119H41.7142C41.7142 64.7119 31.8123 35.3305 42.0951 11.5548C49.712 -4.87558 70.6585 -1.20291 74.8478 6.72233C66.9262 7.98573 61.6812 11.0522 60.6956 18.8383C60.4348 21.0494 60.6083 23.291 61.2059 25.4336Z" fill="#013D55"/>
<path d="M41.322 14.9906C40.6336 16.9738 39.9484 18.9554 39.4407 20.9913C38.88 23.0101 38.4253 25.0585 38.025 27.1146C37.2384 31.2306 36.7078 35.3912 36.4365 39.5725C36.1663 43.7529 36.1491 47.9458 36.3851 52.1282L36.4707 53.6967C36.5019 54.2201 36.5642 54.7403 36.6109 55.2621C36.7184 56.3041 36.7822 57.3524 36.9473 58.3882C37.1124 59.424 37.1934 60.4723 37.3694 61.5066C37.5453 62.5409 37.726 63.5751 37.8942 64.6125L37.4488 64.7119C37.1996 63.6859 36.9592 62.6558 36.7277 61.6215C36.4957 60.5888 36.3352 59.5436 36.139 58.5016C35.9428 57.4595 35.8416 56.4066 35.6967 55.3568C35.6344 54.8319 35.5534 54.307 35.5052 53.7806L35.3681 52.1966C34.6788 43.7321 35.2487 35.2125 37.0594 26.9143C37.3086 25.8847 37.5142 24.8458 37.807 23.8255C38.0998 22.8052 38.3458 21.7771 38.6807 20.7708C38.8364 20.2661 38.9922 19.7598 39.1697 19.2582L39.7117 17.7642C40.0481 16.7595 40.5013 15.7966 40.8984 14.8136L41.322 14.9906Z" fill="#013D55"/>
<path d="M77.0922 35.8847C74.3966 35.5058 78.2325 40.4687 86.2145 46.1987L79.423 46.0536C77.9912 46.0218 76.5951 46.5039 75.4852 47.4135C73.9055 48.7092 72.5311 50.9737 72.5311 50.9737C72.5311 50.9737 68.7302 55.5577 69.4904 55.9397C70.2506 56.3217 76.3321 53.6018 76.3321 53.6018L74.9637 54.2543C74.9637 54.2543 70.5957 56.8351 72.2408 58.0743C73.0009 58.6473 76.6741 58.0743 76.6741 58.0743L84.4037 62.2762L91.5494 74.0678L106.034 61.0707C99.3535 51.1983 89.091 37.5747 77.0922 35.8847Z" fill="#FFBA9A"/>
<path d="M106.074 60.8136L91.2202 74.1064L99.8961 116.623C99.9614 116.964 100.044 117.302 100.144 117.635C103.008 126.727 117.793 130.319 124.684 123.646C132.549 116.029 129.026 106.174 125.518 97.4273C121.892 88.379 117.46 79.612 112.657 71.145C110.698 67.6882 108.77 63.7766 106.074 60.8136Z" fill="#6FB489"/>
<path d="M86.2178 46C86.1785 46 86.1402 45.9878 86.1083 45.965C86.0491 45.9213 80.1466 41.6567 78.0982 39.5746C77.595 39.0621 76.4109 37.3789 76.4065 36.447C76.4073 36.3521 76.4355 36.2594 76.488 36.1797C76.5404 36.1001 76.6148 36.0367 76.7025 35.9971C77.9088 35.3798 83.0964 36.8416 90.3857 41.9406C90.417 41.9712 90.4362 42.0118 90.4398 42.0551C90.4434 42.0984 90.4311 42.1415 90.4052 42.1766C90.3793 42.2118 90.3414 42.2367 90.2985 42.2468C90.2556 42.2569 90.2104 42.2516 90.1711 42.2318C82.8418 37.1052 77.817 35.8253 76.8727 36.3145C76.7721 36.3655 76.7721 36.4165 76.7721 36.4412C76.7721 37.1838 77.8081 38.7505 78.3602 39.3154C80.3864 41.3757 86.2637 45.6229 86.3229 45.6651C86.3545 45.6878 86.378 45.7197 86.39 45.7563C86.402 45.7929 86.4019 45.8322 86.3897 45.8688C86.3776 45.9053 86.354 45.9371 86.3223 45.9597C86.2906 45.9822 86.2525 45.9943 86.2134 45.9941L86.2178 46Z" fill="#BF643A"/>
<path d="M71.7285 51.4576L71.9599 51.0713C72.0828 50.8679 74.9918 46.1009 78.7529 46L88.6832 46.0505C88.7093 46.0505 88.7352 46.0556 88.7593 46.0655C88.7834 46.0754 88.8053 46.09 88.8237 46.1083C88.8421 46.1266 88.8566 46.1483 88.8664 46.1722C88.8763 46.1961 88.8813 46.2218 88.8811 46.2476C88.8767 46.2987 88.854 46.3465 88.8172 46.3826C88.7803 46.4187 88.7317 46.4407 88.68 46.4447L78.7577 46.3942C75.8327 46.4731 73.3434 49.7388 72.5583 50.8821L79.6051 49.425L85.3337 50.6865C85.3841 50.699 85.4276 50.7304 85.4549 50.7741C85.4822 50.8177 85.4912 50.8702 85.48 50.9203C85.4688 50.9704 85.4382 51.0142 85.3948 51.0424C85.3514 51.0706 85.2986 51.081 85.2476 51.0713L79.6035 49.8287L71.7285 51.4576Z" fill="#BF643A"/>
<path d="M69.2577 56.1338C69.1061 56.144 68.9548 56.1108 68.8212 56.0383C68.763 55.9999 68.7142 55.9487 68.6786 55.8887C68.6429 55.8286 68.6213 55.7613 68.6153 55.6916C68.4709 54.5838 71.5104 51.1325 71.8562 50.7427C71.89 50.7045 71.9376 50.6814 71.9885 50.6783C72.0393 50.6753 72.0893 50.6926 72.1274 50.7266C72.1655 50.7605 72.1886 50.8082 72.1917 50.8592C72.1947 50.9102 72.1774 50.9603 72.1436 50.9985C70.8773 52.4206 68.9042 54.9397 68.9964 55.6423C68.9964 55.6978 69.0226 55.7116 69.0333 55.7178C69.5681 56.0691 73.2853 54.5453 75.7532 53.3481L75.8101 53.3204L83.2676 54.7595C83.3177 54.7691 83.362 54.7982 83.3907 54.8406C83.4193 54.8829 83.4301 54.9349 83.4205 54.9852C83.4109 55.0354 83.3818 55.0798 83.3396 55.1086C83.2974 55.1373 83.2455 55.1481 83.1954 55.1385L75.8623 53.7225C74.8435 54.2156 70.7851 56.1338 69.2577 56.1338Z" fill="#BF643A"/>
<path d="M74.0813 58.4746C73.0618 58.4746 72.0233 58.2695 71.7626 57.4903C71.673 57.2213 71.4463 55.7432 75.8597 53.0446C75.8797 53.0306 75.9019 53.0217 75.9249 53.0184C75.9479 53.0151 75.9712 53.0175 75.9934 53.0255C76.0155 53.0335 76.0361 53.0469 76.0539 53.0649C76.0716 53.0828 76.0861 53.105 76.0965 53.13C76.1069 53.155 76.1129 53.1823 76.1143 53.2102C76.1156 53.2381 76.1122 53.2661 76.1042 53.2924C76.0963 53.3186 76.084 53.3427 76.0681 53.363C76.0522 53.3833 76.033 53.3995 76.0117 53.4105C74.327 54.4407 71.7694 56.4191 72.0749 57.3361C72.3803 58.2531 74.7791 58.1334 76.2154 57.8282C76.2587 57.8216 76.3024 57.8353 76.3375 57.8667C76.3726 57.898 76.3964 57.9444 76.4039 57.9964C76.4115 58.0483 76.4021 58.1018 76.3779 58.1456C76.3536 58.1894 76.3163 58.2203 76.2737 58.2318C75.5495 58.3837 74.8163 58.4649 74.0813 58.4746Z" fill="#BF643A"/>
</svg>
