<svg width="353" height="346" viewBox="0 0 353 346" fill="none" xmlns="http://www.w3.org/2000/svg">
<path fill-rule="evenodd" clip-rule="evenodd" d="M0 15C0 6.71572 6.71573 0 15 0H338C346.284 0 353 6.71573 353 15V265C353 273.284 346.284 280 338 280H333C325.5 280 319.167 280.833 316.5 281.5C297.7 285.9 286 301.333 282.5 308.5C277.558 319.619 271.305 327.28 267.1 331.345C258.536 340.371 246.425 346 233 346H15C6.71572 346 0 339.284 0 331V273C0 271.615 0.187766 270.273 0.539233 269C0.187766 267.727 0 266.385 0 265V15Z" fill="#7CBB94" fill-opacity="0.2"/>
</svg>
