<svg width="21" height="22" viewBox="0 0 21 22" fill="none" xmlns="http://www.w3.org/2000/svg">
<path d="M16.8793 3.92371L17.1363 3.66667L16.8793 3.40964L16.5126 3.04297C16.1657 2.69604 16.1657 2.19286 16.5126 1.84593L16.2556 1.58889L16.5126 1.84593C16.8596 1.499 17.3627 1.499 17.7097 1.84593L20.1541 4.29038C20.501 4.63731 20.501 5.14049 20.1541 5.48742C20.0534 5.58818 19.967 5.6493 19.8816 5.68728C19.7977 5.72456 19.6965 5.74762 19.5556 5.74762C19.4147 5.74762 19.3135 5.72456 19.2296 5.68728C19.1442 5.6493 19.0578 5.58818 18.9571 5.48742L18.5904 5.12075L18.3334 4.86371L18.0763 5.12075L17.2208 5.97631L16.9927 6.20435L17.192 6.45793C18.4869 8.10595 19.1921 10.1049 19.1921 12.2222C19.1921 17.3993 14.9548 21.6365 9.7778 21.6365C4.60077 21.6365 0.363506 17.3993 0.363506 12.2222C0.363506 7.40181 4.00869 3.51609 8.6018 2.92723L8.91908 2.88655V2.56667V1.22222C8.91908 0.938163 9.01218 0.729692 9.14872 0.593149C9.28526 0.456606 9.49374 0.363506 9.7778 0.363506C10.0619 0.363506 10.2703 0.456606 10.4069 0.593149C10.5434 0.729692 10.6365 0.938163 10.6365 1.22222V2.56667V2.88493L10.952 2.92699C12.7317 3.16428 14.2537 3.754 15.5365 4.80357L15.7911 5.01188L16.0237 4.77927L16.8793 3.92371ZM2.08094 12.2222C2.08094 16.4563 5.5437 19.9191 9.7778 19.9191C14.0119 19.9191 17.4747 16.4563 17.4747 12.2222C17.4747 7.98815 14.0119 4.52539 9.7778 4.52539C5.5437 4.52539 2.08094 7.98815 2.08094 12.2222Z" fill="black" stroke="white" stroke-width="0.7"/>
<path d="M8.91917 8.55573C8.91917 8.27167 9.01227 8.06319 9.14882 7.92665C9.28536 7.79011 9.49383 7.69701 9.77789 7.69701C10.062 7.69701 10.2704 7.79011 10.407 7.92665C10.5435 8.06319 10.6366 8.27167 10.6366 8.55573V12.2224C10.6366 12.5065 10.5435 12.7149 10.407 12.8515C10.2704 12.988 10.062 13.0811 9.77789 13.0811C9.49383 13.0811 9.28536 12.988 9.14882 12.8515C9.01227 12.7149 8.91917 12.5065 8.91917 12.2224V8.55573Z" fill="black" stroke="white" stroke-width="0.7"/>
</svg>
