<svg width="17" height="18" viewBox="0 0 17 18" fill="none" xmlns="http://www.w3.org/2000/svg">
<path d="M7.13006 0.489297C7.9214 -0.163101 9.07853 -0.163101 9.86988 0.489306L16.2449 5.74492C16.7236 6.13966 16.9999 6.72078 16.9999 7.33309V16.3841C16.9999 17.2765 16.26 17.9999 15.3472 17.9999H12.0416C11.1288 17.9999 10.3889 17.2765 10.3889 16.3841V11.3059C10.3889 11.1785 10.2832 11.0751 10.1527 11.0751H6.8472C6.71677 11.0751 6.61108 11.1785 6.61108 11.3059V16.3841C6.61108 17.2765 5.87112 17.9999 4.95832 17.9999H1.65277C0.739969 17.9999 0 17.2765 0 16.3841V7.33309C0 6.72078 0.276296 6.13966 0.755099 5.74492L7.13006 0.489297ZM8.95661 1.54807C8.69282 1.33061 8.30711 1.33061 8.04333 1.54807L1.66836 6.8037C1.50876 6.93527 1.41666 7.12899 1.41666 7.33309V16.3841C1.41666 16.5116 1.52237 16.615 1.65277 16.615H4.95832C5.08871 16.615 5.19442 16.5116 5.19442 16.3841V11.3059C5.19442 10.4135 5.93439 9.69008 6.8472 9.69008H10.1527C11.0655 9.69008 11.8055 10.4135 11.8055 11.3059V16.3841C11.8055 16.5116 11.9112 16.615 12.0416 16.615H15.3472C15.4776 16.615 15.5833 16.5116 15.5833 16.3841V7.33309C15.5833 7.12899 15.4912 6.93527 15.3316 6.8037L8.95661 1.54807Z" fill="#838080"/>
</svg>
