<svg width="12" height="12" viewBox="0 0 12 12" fill="none" xmlns="http://www.w3.org/2000/svg">
<path fill-rule="evenodd" clip-rule="evenodd" d="M5.8504 1.02846C7.30041 1.02846 8.42185 2.12743 8.42185 3.41842C8.42185 4.7094 7.30041 5.80837 5.8504 5.80837C4.40039 5.80837 3.27895 4.7094 3.27895 3.41842C3.27895 2.12743 4.40039 1.02846 5.8504 1.02846ZM9.45043 3.41842C9.45043 1.50152 7.80885 0 5.8504 0C3.89195 0 2.25037 1.50167 2.25037 3.41842C2.25037 5.3354 3.89195 6.83683 5.8504 6.83683C7.80885 6.83683 9.45043 5.33528 9.45043 3.41842Z" fill="#408FAD"/>
<path fill-rule="evenodd" clip-rule="evenodd" d="M5.85031 6.83693C8.16552 6.83693 10.0863 8.3115 10.6514 10.2742C10.7018 10.4492 10.6567 10.6054 10.5386 10.7344C10.4131 10.8713 10.205 10.9715 9.96472 10.9715H1.73607C1.4958 10.9715 1.28767 10.8713 1.16221 10.7344C1.0442 10.6055 0.999088 10.4492 1.04949 10.2742C1.61462 8.31159 3.53518 6.83693 5.85031 6.83693ZM11.6397 9.98938C10.941 7.56258 8.59897 5.80835 5.85031 5.80835C3.10173 5.80835 0.75971 7.56267 0.0608629 9.98938C-0.0983614 10.5423 0.0683248 11.063 0.403762 11.429C0.731733 11.7871 1.21893 11.9999 1.73598 11.9999H9.96463C10.4818 11.9999 10.9689 11.7871 11.297 11.429C11.6324 11.063 11.799 10.5423 11.6397 9.98938Z" fill="#408FAD"/>
</svg>
