<svg width="22" height="22" viewBox="0 0 22 22" fill="none" xmlns="http://www.w3.org/2000/svg">
<path d="M4.57806 11.3351C7.48062 10.0696 9.7084 7.59653 10.6649 4.57802C11.9303 7.48058 14.4034 9.70836 17.4219 10.6648C14.5194 11.9303 12.2916 14.4034 11.3351 17.4219C10.0697 14.5193 7.59657 12.2916 4.57806 11.3351ZM1.02851 10.8277L0.536741 10.8711L0.562468 11.3641L0.581263 11.7242L0.60699 12.2172L1.1006 12.2092C6.13905 12.1273 10.3848 15.9518 10.8277 20.9715L10.8711 21.4632L11.3641 21.4375L11.7243 21.4187L12.2173 21.393L12.2092 20.8994C12.1273 15.8609 15.9519 11.6152 20.9715 11.1723L21.4633 11.1289L21.4375 10.6359L21.4187 10.2757L21.393 9.7827L20.8994 9.79072C15.861 9.87266 11.6152 6.04808 11.1723 1.02847L11.1289 0.536701L10.6359 0.562428L10.2757 0.581222L9.78274 0.606949L9.79077 1.10056C9.8727 6.13901 6.04812 10.3847 1.02851 10.8277Z" fill="#163B61" stroke="#163B61"/>
</svg>
