<svg width="13" height="15" viewBox="0 0 13 15" fill="none" xmlns="http://www.w3.org/2000/svg">
<path d="M12.6621 11.8869C12.388 11.8869 12.1251 11.778 11.9312 11.5842C11.7374 11.3903 11.6285 11.1274 11.6285 10.8533V6.20187C11.6285 4.92063 11.1526 3.68507 10.2932 2.73488C9.43368 1.78468 8.25191 1.18761 6.9771 1.05949V0H5.94345V1.05949C4.66865 1.18761 3.48687 1.78468 2.6274 2.73488C1.76793 3.68507 1.29204 4.92063 1.29206 6.20187V10.8533C1.29206 11.1274 1.18315 11.3903 0.989308 11.5842C0.795462 11.778 0.532551 11.8869 0.258411 11.8869H0V12.9206H5.00284C4.91784 13.1547 4.89053 13.406 4.92321 13.6529C4.9559 13.8999 5.04762 14.1354 5.19061 14.3394C5.3336 14.5434 5.52365 14.71 5.74466 14.825C5.96567 14.94 6.21114 15 6.46028 15C6.70941 15 6.95488 14.94 7.17589 14.825C7.39691 14.71 7.58695 14.5434 7.72994 14.3394C7.87294 14.1354 7.96466 13.8999 7.99734 13.6529C8.03003 13.406 8.00271 13.1547 7.91772 12.9206H12.9206V11.8869H12.6621ZM2.3257 10.8533V6.20187C2.3257 5.10531 2.76131 4.05366 3.53669 3.27828C4.31207 2.50289 5.36372 2.06729 6.46028 2.06729C7.55684 2.06729 8.60848 2.50289 9.38386 3.27828C10.1592 4.05366 10.5949 5.10531 10.5949 6.20187V10.8533C10.5964 11.2176 10.6964 11.5748 10.8843 11.8869H2.03628C2.22417 11.5748 2.32417 11.2176 2.3257 10.8533ZM6.9771 13.4374C6.9771 13.5396 6.94679 13.6395 6.89 13.7245C6.83321 13.8095 6.75249 13.8757 6.65806 13.9149C6.56362 13.954 6.4597 13.9642 6.35945 13.9443C6.2592 13.9243 6.16711 13.8751 6.09483 13.8028C6.02255 13.7305 5.97333 13.6385 5.95339 13.5382C5.93344 13.438 5.94368 13.334 5.9828 13.2396C6.02191 13.1452 6.08815 13.0644 6.17315 13.0077C6.25814 12.9509 6.35806 12.9206 6.46028 12.9206C6.59735 12.9206 6.7288 12.975 6.82573 13.0719C6.92265 13.1688 6.9771 13.3003 6.9771 13.4374Z" fill="black"/>
</svg>
