<svg width="13" height="16" viewBox="0 0 13 16" fill="none" xmlns="http://www.w3.org/2000/svg">
<path d="M11.2861 5.71994H10.4901V3.8139C10.4901 1.71088 8.70017 0 6.5 0C4.29983 0 2.50985 1.71092 2.50985 3.8139V5.71994H1.71393C0.768878 5.71994 0 6.45486 0 7.35816V14.3618C0 15.2651 0.768878 16 1.71393 16H11.2861C12.2311 16 13 15.2651 13 14.3618V7.35816C13 6.45486 12.2311 5.71994 11.2862 5.71994H11.2861ZM3.79546 3.81405C3.79546 2.38839 5.00861 1.22882 6.50015 1.22882C7.9917 1.22882 9.20485 2.38839 9.20485 3.81405V5.72009H3.79538L3.79546 3.81405ZM11.7145 14.3617C11.7145 14.5875 11.5224 14.7712 11.2861 14.7712H1.71397C1.4777 14.7712 1.28553 14.5875 1.28553 14.3617V7.35809C1.28553 7.13226 1.47771 6.94858 1.71397 6.94858H11.2861C11.5224 6.94858 11.7145 7.13227 11.7145 7.35809V14.3617Z" fill="#408FAD"/>
</svg>
