<svg width="17" height="18" viewBox="0 0 17 18" fill="none" xmlns="http://www.w3.org/2000/svg">
<path d="M7.13006 0.489298C7.92141 -0.163101 9.07854 -0.163101 9.86989 0.489307L16.2449 5.74493C16.7236 6.13966 17 6.72078 17 7.33309V16.3841C17 17.2765 16.26 17.9999 15.3472 17.9999H12.0416C11.1288 17.9999 10.3889 17.2765 10.3889 16.3841V11.3059C10.3889 11.1785 10.2832 11.0751 10.1527 11.0751H6.8472C6.71677 11.0751 6.61108 11.1785 6.61108 11.3059V16.3841C6.61108 17.2765 5.87112 17.9999 4.95832 17.9999H1.65277C0.73997 17.9999 0 17.2765 0 16.3841V7.33309C0 6.72078 0.276296 6.13966 0.7551 5.74493L7.13006 0.489298ZM8.95661 1.54808C8.69283 1.33061 8.30712 1.33061 8.04334 1.54808L1.66837 6.80371C1.50876 6.93528 1.41666 7.12899 1.41666 7.33309V16.3841C1.41666 16.5117 1.52237 16.615 1.65277 16.615H4.95832C5.08872 16.615 5.19442 16.5117 5.19442 16.3841V11.3059C5.19442 10.4135 5.9344 9.69008 6.8472 9.69008H10.1527C11.0656 9.69008 11.8055 10.4135 11.8055 11.3059V16.3841C11.8055 16.5117 11.9112 16.615 12.0416 16.615H15.3472C15.4776 16.615 15.5833 16.5117 15.5833 16.3841V7.33309C15.5833 7.12899 15.4912 6.93528 15.3316 6.80371L8.95661 1.54808Z" fill="white" fill-opacity="0.5"/>
</svg>
