<svg width="16" height="16" viewBox="0 0 16 16" fill="none" xmlns="http://www.w3.org/2000/svg">
<g opacity="0.9">
<path d="M8.00001 0C10.1217 0 12.1564 0.842847 13.6569 2.34314C15.1571 3.84352 16 5.87851 16 7.99999C16 10.1215 15.1572 12.1564 13.6569 13.6569C12.1565 15.1571 10.1215 16 8.00001 16C5.87852 16 3.84357 15.1571 2.34315 13.6569C0.842892 12.1565 1.26424e-05 10.1215 1.26424e-05 7.99999C0.00230869 5.87893 0.845799 3.84551 2.3457 2.34575C3.84546 0.845851 5.87911 0.002351 7.99994 6.52707e-05L8.00001 0ZM8.00001 14.8573C9.81863 14.8573 11.5628 14.1348 12.8487 12.8488C14.1347 11.5628 14.8571 9.81869 14.8571 8.00012C14.8571 6.18156 14.1347 4.43732 12.8487 3.15144C11.5627 1.86545 9.81857 1.143 8.00001 1.143C6.18145 1.143 4.43721 1.86545 3.15132 3.15144C1.86533 4.43742 1.14288 6.18156 1.14288 8.00012C1.14479 9.81813 1.86788 11.561 3.15347 12.8469C4.43907 14.1324 6.18207 14.8556 8.0002 14.8574L8.00001 14.8573Z" fill="white"/>
<path d="M8.00008 4.00038C8.15161 4.00038 8.29702 4.06059 8.40417 4.16773C8.51131 4.27487 8.57151 4.42029 8.57151 4.57182V7.73932L10.6595 9.54328C10.7789 9.64099 10.8537 9.78282 10.8669 9.93653C10.8802 10.0902 10.8307 10.2427 10.7298 10.3594C10.6289 10.4761 10.485 10.547 10.3311 10.5559C10.177 10.565 10.026 10.5114 9.91208 10.4073L7.62635 8.43012C7.50147 8.32221 7.42941 8.16545 7.42864 8.0004V4.57181C7.42864 4.42028 7.48885 4.27486 7.59599 4.16772C7.70313 4.06058 7.84855 4.00038 8.00008 4.00038Z" fill="white"/>
</g>
</svg>
