<svg width="76" height="86" viewBox="0 0 76 86" fill="none" xmlns="http://www.w3.org/2000/svg">
<path d="M64.321 75.3262C62.0266 77.5448 59.4616 79.4801 56.6566 81.0631C54.5001 82.2914 52.1939 83.3174 49.7856 84.1029C46.8452 85.0813 43.7458 85.6955 40.5205 85.9121C39.1928 86.0025 37.8746 86.0263 36.5684 85.9692H36.5232C36.262 85.9573 36.0126 85.9454 35.7632 85.9359C34.6493 85.8787 33.5378 85.7645 32.4476 85.605C25.8164 84.6385 19.6959 81.9296 14.5967 77.9352C14.3235 77.7305 14.0528 77.5138 13.7796 77.2758C10.5994 74.6573 7.85385 71.5175 5.67355 67.9777C5.6403 67.9325 5.61655 67.8873 5.5928 67.8421C2.47196 62.7622 0.517287 56.8777 0.087401 50.5171C-1.00275 34.311 8.20536 19.776 22.1042 13.3797C22.1494 13.3464 22.1945 13.3226 22.2396 13.3107C23.306 12.8203 24.408 12.3775 25.5314 12.0014C28.6428 10.9088 31.9465 10.2137 35.3998 9.98757C39.0099 9.74953 42.5321 10.0114 45.9024 10.7374C46.9925 10.9659 48.0708 11.2492 49.1277 11.5801C49.6716 11.7396 50.206 11.9205 50.7404 12.1157C52.3411 12.6846 53.9087 13.3678 55.4073 14.1534C55.5332 14.2224 55.6686 14.289 55.7921 14.3581C66.9763 20.333 74.9137 31.783 75.8329 45.3825C76.6166 57.0253 72.085 67.8016 64.3186 75.3238L64.321 75.3262Z" fill="#D4E9DC"/>
<path d="M57.5665 69.2379C57.5665 69.2379 57.8159 73.8131 56.6688 81.0164C56.6688 81.0283 56.6688 81.0497 56.6569 81.0616C54.5003 82.2899 52.1942 83.3159 49.7858 84.1015C46.8455 85.0798 43.7461 85.694 40.5207 85.9106C39.1931 86.0011 37.8749 86.0249 36.5686 85.9677H36.5235C36.2622 85.9558 36.0129 85.9439 35.7635 85.9344C34.6401 85.8773 33.538 85.763 32.4479 85.6035C25.8048 84.6704 19.6724 81.9852 14.5518 78.0123C14.2787 77.8075 14.0079 77.579 13.7348 77.3529C10.5332 74.7463 7.76149 71.6065 5.55981 68.0763C5.59306 68.0429 5.62868 68.0072 5.67381 67.9739C10.0677 64.3199 14.5185 60.9635 18.6416 58.7092C19.119 58.4473 19.5964 58.2093 20.0714 57.9808C20.2876 57.8784 20.4918 57.7879 20.6961 57.6856C24.0235 56.1383 27.0897 55.4551 29.6548 56.0693C29.6548 56.0693 31.1416 55.8312 33.4715 55.6146C33.4715 55.6146 33.4795 55.6106 33.4953 55.6027C37.1861 55.2623 42.9647 54.9766 48.2896 55.7836C53.5693 56.5811 58.4073 58.4592 60.3145 62.4179L60.3264 62.4298C60.6565 63.1344 60.9391 63.7605 61.1553 64.3413C64.345 72.4563 57.5665 69.2355 57.5665 69.2355V69.2379Z" fill="#408FAD"/>
<path d="M36.9079 35.0474L48.3509 34.3189L48.2773 58.4567C48.2773 58.4567 42.6413 64.8601 32.571 61.6703C26.0444 59.6017 33.2313 57.057 33.2313 57.057L36.9103 35.0497L36.9079 35.0474Z" fill="#FDCBB2"/>
<path d="M48.3727 40.4865L35.5378 43.236L33.9988 52.4507L48.3727 40.4865Z" fill="#EAB7A0"/>
<path d="M34.3182 48.1052L48.3738 40.4854L51.2452 6.11405C5.73429 -2.57936 28.6251 46.0747 28.6251 46.0747C28.6251 46.0747 24.7823 51.9711 34.3182 48.1028V48.1052Z" fill="#FDCBB2"/>
<path d="M45.312 14.2083C51.1142 8.19287 29.285 4.84596 43.8442 1.63949C53.9714 -0.590995 56.5175 7.52158 55.2065 15.7865C53.8954 24.0514 50.7461 25.1798 48.01 28.0815L43.4642 28.3862C45.9271 22.2233 43.3335 16.2602 45.3143 14.2059L45.312 14.2083Z" fill="#163B61"/>
<path d="M34.937 17.4059C43.2859 17.3664 50.0358 13.4381 50.0132 8.63162C49.9906 3.82518 43.2041 -0.0392487 34.8551 0.000184333C26.5062 0.0396174 19.7564 3.96798 19.779 8.77442C19.8016 13.5809 26.588 17.4453 34.937 17.4059Z" fill="#163B61"/>
<path d="M53.0474 27.3624C54.3289 24.4028 54.048 21.4295 52.4199 20.7214C50.7919 20.0133 48.4333 21.8384 47.1518 24.7979C45.8703 27.7575 46.1512 30.7308 47.7793 31.4389C49.4073 32.147 51.766 30.3219 53.0474 27.3624Z" fill="#FDCBB2"/>
<path d="M52.0428 22.8215C51.1403 23.2905 50.6202 23.8071 50.1309 24.4403C49.8696 24.7426 49.6725 25.1092 49.416 25.4638C49.1832 25.8376 48.9481 26.228 48.6156 26.6326C48.4826 26.1328 48.4897 25.6257 48.5918 25.133C48.7082 24.6426 48.9054 24.1594 49.2331 23.7404C49.5632 23.331 49.9908 22.9715 50.5014 22.793C51.0002 22.6097 51.5702 22.5764 52.0404 22.8192L52.0428 22.8215Z" fill="#CA807A"/>
<path d="M32.7793 22.1425L41.6976 25.4347C41.6976 25.4347 41.5385 22.8186 37.888 21.507C34.2352 20.1953 32.7793 22.1425 32.7793 22.1425Z" fill="#001848"/>
<path d="M22.9262 24.9228L27.6312 23.2898C27.6312 23.2898 26.1444 21.1355 24.223 21.9734C22.3419 22.7923 22.9262 24.9228 22.9262 24.9228Z" fill="#001848"/>
<path d="M38.7065 29.6588C38.7754 28.6447 38.4144 27.6449 37.5973 27.0165C36.9323 26.5071 36.0155 26.2928 35.2057 26.5428C34.7378 26.688 34.353 26.9736 34.0632 27.3688C33.8471 27.664 34.3388 27.9472 34.5525 27.6568C34.9373 27.1355 35.6094 26.9355 36.2246 27.0308C36.9323 27.1379 37.5522 27.5854 37.8823 28.2234C38.1127 28.6661 38.1721 29.1684 38.1365 29.6612C38.1104 30.0277 38.678 30.0254 38.7041 29.6612L38.7065 29.6588Z" fill="#001848"/>
<path d="M36.5963 30.1064C37.1722 30.0688 37.5925 29.3205 37.5351 28.435C37.4776 27.5495 36.9642 26.862 36.3883 26.8995C35.8123 26.9371 35.392 27.6854 35.4494 28.5709C35.5069 29.4565 36.0203 30.1439 36.5963 30.1064Z" fill="#001848"/>
<path d="M29.2874 29.8583C29.3562 28.868 28.9169 27.8897 28.0357 27.3969C27.3066 26.9899 26.3494 26.9542 25.6868 27.5088C25.2806 27.8468 25.1025 28.3586 25.0598 28.8704C25.0289 29.2346 25.5965 29.2322 25.6274 28.8704C25.6583 28.5133 25.7794 28.2015 26.0145 27.9777C26.2117 27.7897 26.5085 27.6778 26.7674 27.6611C27.4087 27.6207 28.0618 27.9516 28.4181 28.5133C28.6722 28.9133 28.7553 29.3798 28.7221 29.8583C28.696 30.2249 29.2636 30.2225 29.2897 29.8583H29.2874Z" fill="#001848"/>
<path d="M27.6561 30.6543C28.2294 30.617 28.6511 29.922 28.5979 29.102C28.5447 28.2821 28.0368 27.6477 27.4635 27.685C26.8902 27.7224 26.4685 28.4174 26.5217 29.2373C26.5749 30.0573 27.0828 30.6917 27.6561 30.6543Z" fill="#001848"/>
<path d="M34.1935 44.4618C34.1579 44.1428 33.8017 44.0166 33.5333 43.95C33.0535 43.8286 32.5405 43.8262 32.0489 43.8619C31.8684 43.8762 31.866 44.1594 32.0489 44.1475C32.4811 44.1142 32.9276 44.1118 33.3552 44.2023C33.4953 44.2309 33.6378 44.2666 33.7637 44.3356C33.8135 44.3618 33.842 44.3808 33.88 44.4189C33.8895 44.4308 33.8895 44.4237 33.9014 44.4499C33.9062 44.4618 33.9133 44.4737 33.9038 44.4546C33.9062 44.4618 33.9109 44.4975 33.9085 44.4641C33.918 44.5403 33.9679 44.6046 34.051 44.607C34.1223 44.607 34.2007 44.5403 34.1935 44.4641V44.4618Z" fill="#CA807A"/>
<path d="M36.2188 38.7154C35.1547 39.7724 33.8413 40.596 32.3878 41.0673C31.6586 41.2911 30.8915 41.4363 30.1196 41.3934C29.3548 41.3649 28.5568 41.1506 27.9892 40.6388C28.6779 40.9412 29.4023 41.0126 30.1148 40.9554C30.8274 40.8959 31.5304 40.7483 32.2168 40.5246C32.9055 40.3127 33.5729 40.0247 34.2427 39.7271C34.9077 39.4177 35.549 39.0582 36.2188 38.7154Z" fill="#CA807A"/>
<path d="M31.5263 25.7955C28.282 30.8706 28.3675 38.0739 28.3675 38.0739L32.455 35.9957L31.5287 25.7955H31.5263Z" fill="#EAB7A0"/>
<path d="M27.1454 62.5123C25.9982 62.5123 24.9437 63.0479 24.0911 63.7406C23.2052 64.4571 22.4333 65.3117 21.7303 66.2115C20.31 68.0206 19.1082 69.9893 17.9492 71.9936C16.8139 73.9622 15.7024 75.9428 14.6003 77.9352C14.5766 77.959 14.5671 77.9923 14.5552 78.0138C14.2821 77.809 14.0113 77.5805 13.7382 77.3544C13.7501 77.3306 13.7714 77.2972 13.7833 77.2758C14.8853 75.3524 16.0087 73.429 17.201 71.5389C18.4622 69.5822 19.7661 67.6231 21.3004 65.8592C22.0841 64.9832 22.9463 64.1643 23.9129 63.493C24.844 62.8336 26.0149 62.3885 27.1502 62.5146L27.1454 62.5123Z" fill="#001848"/>
<path d="M64.3218 75.3262C62.0275 77.5448 59.4624 79.4801 56.6575 81.0631C54.5009 82.2914 52.1947 83.3174 49.7864 84.1029C49.7864 84.1029 49.7864 84.095 49.7864 84.0791C49.5822 80.4704 49.3209 76.6236 49.2995 73.8932C49.1737 60.2484 55.9758 59.52 55.9758 59.52C57.3272 59.7581 58.4506 60.4198 59.3484 61.2958C59.7118 61.6362 60.0301 62.0243 60.3127 62.4218L60.3246 62.4337C61.5857 64.1857 62.2674 66.3948 62.5381 68.261C62.6735 69.2061 63.4335 71.8341 64.3218 75.3286V75.3262Z" fill="#408FAD"/>
</svg>
