<svg width="12" height="21" viewBox="0 0 12 21" fill="none" xmlns="http://www.w3.org/2000/svg">
<path d="M10.9188 0.00761879H8.19726C7.51486 -0.0309579 6.83212 0.0772816 6.19511 0.325034C5.5581 0.572786 4.98165 0.954288 4.50463 1.4438C4.02762 1.93331 3.66115 2.51943 3.42995 3.16264C3.19875 3.80584 3.1082 4.49114 3.16441 5.17232V7.55802H0.428233C0.314659 7.55802 0.205735 7.60314 0.125426 7.68345C0.0451173 7.76376 0 7.87268 0 7.98625V11.4369C0 11.5505 0.0451173 11.6594 0.125426 11.7397C0.205735 11.82 0.314659 11.8651 0.428233 11.8651H3.16441V20.5718C3.16441 20.6853 3.20953 20.7943 3.28983 20.8746C3.37014 20.9549 3.47907 21 3.59264 21H7.16274C7.27632 21 7.38524 20.9549 7.46555 20.8746C7.54586 20.7943 7.59097 20.6853 7.59097 20.5718V11.8606H10.7903C10.8466 11.8606 10.9022 11.8495 10.9542 11.828C11.0062 11.8065 11.0534 11.775 11.0931 11.7352C11.1329 11.6954 11.1644 11.6482 11.186 11.5963C11.2075 11.5443 11.2185 11.4886 11.2185 11.4324V7.98175C11.2185 7.86817 11.1734 7.75925 11.0931 7.67894C11.0128 7.59863 10.9039 7.55351 10.7903 7.55351H7.58985V5.52956C7.58985 4.55927 7.82087 4.06455 9.08528 4.06455H10.9188C11.0324 4.06455 11.1413 4.01943 11.2216 3.93913C11.3019 3.85882 11.347 3.74989 11.347 3.63632V0.440358C11.3476 0.383744 11.337 0.327573 11.3157 0.275096C11.2945 0.22262 11.263 0.174878 11.2232 0.134634C11.1834 0.0943908 11.136 0.0624438 11.0837 0.0406418C11.0315 0.0188398 10.9754 0.00761565 10.9188 0.00761879Z" fill="#163B61"/>
</svg>
