<svg width="10" height="10" viewBox="0 0 10 10" fill="none" xmlns="http://www.w3.org/2000/svg">
<path d="M0.12681 3.25256H2.26993V10H0.12681V3.25256ZM1.21271 0C0.479214 0 0 0.503806 0 1.16507C0 1.81273 0.46519 2.33118 1.18467 2.33118H1.19833C1.94586 2.33118 2.41138 1.81271 2.41138 1.16507C2.39736 0.503806 1.94588 0 1.21271 0ZM7.53188 3.09406C6.39429 3.09406 5.88464 3.74869 5.60033 4.20779V3.25256H3.45657C3.48495 3.88555 3.45657 10 3.45657 10H5.60033V6.23175C5.60033 6.02993 5.61436 5.82886 5.67076 5.68428C5.82598 5.28138 6.17869 4.86417 6.77033 4.86417C7.54657 4.86417 7.85657 5.48321 7.85657 6.38986V9.99998H10V6.13087C10 4.05837 8.94281 3.09406 7.53188 3.09406Z" fill="#163B61"/>
</svg>
