<svg width="6" height="11" viewBox="0 0 6 11" fill="none" xmlns="http://www.w3.org/2000/svg">
<path d="M5.71932 0.00399077H4.29377C3.93633 -0.0162159 3.5787 0.0404806 3.24503 0.170255C2.91137 0.300029 2.60942 0.499861 2.35955 0.756269C2.10969 1.01268 1.91773 1.31969 1.79663 1.65661C1.67553 1.99352 1.62809 2.35249 1.65754 2.70929V3.95894H0.224311C0.16482 3.95894 0.107765 3.98257 0.065699 4.02464C0.0236327 4.0667 0 4.12376 0 4.18325V5.99072C0 6.05021 0.0236327 6.10726 0.065699 6.14933C0.107765 6.19139 0.16482 6.21503 0.224311 6.21503H1.65754V10.7756C1.65754 10.8351 1.68117 10.8922 1.72323 10.9342C1.7653 10.9763 1.82235 10.9999 1.88185 10.9999H3.75189C3.81138 10.9999 3.86843 10.9763 3.9105 10.9342C3.95256 10.8922 3.9762 10.8351 3.9762 10.7756V6.21266H5.65203C5.68149 6.21266 5.71066 6.20686 5.73787 6.19559C5.76508 6.18432 5.78981 6.16779 5.81064 6.14697C5.83147 6.12614 5.84799 6.10141 5.85927 6.07419C5.87054 6.04698 5.87634 6.01781 5.87634 5.98835V4.18089C5.87634 4.12139 5.85271 4.06434 5.81064 4.02227C5.76857 3.98021 5.71152 3.95657 5.65203 3.95657H3.97561V2.89641C3.97561 2.38817 4.09661 2.12904 4.75892 2.12904H5.71932C5.77881 2.12904 5.83587 2.1054 5.87794 2.06334C5.92 2.02127 5.94363 1.96422 5.94363 1.90473V0.230662C5.94395 0.201007 5.93837 0.171585 5.92724 0.144097C5.91611 0.116609 5.89964 0.0916022 5.87877 0.0705223C5.85791 0.0494425 5.83308 0.0327084 5.80571 0.0212884C5.77834 0.00986839 5.74898 0.00398912 5.71932 0.00399077Z" fill="#163B61"/>
</svg>
