<svg width="17" height="18" viewBox="0 0 17 18" fill="none" xmlns="http://www.w3.org/2000/svg">
<path d="M12.1632 7.25476C12.954 7.25476 13.6086 6.60017 13.6086 5.80932C13.6086 5.01832 12.954 4.36387 12.1632 4.36387C11.3723 4.36387 10.7177 5.01846 10.7177 5.80932C10.7177 6.60017 11.3722 7.25476 12.1632 7.25476ZM12.1632 5.45473C12.3542 5.45473 12.5178 5.61833 12.5178 5.80933C12.5178 6.00032 12.3542 6.16393 12.1632 6.16393C11.9722 6.16393 11.8086 6.00032 11.8086 5.80933C11.8086 5.61833 11.9722 5.45473 12.1632 5.45473Z" fill="white" fill-opacity="0.5"/>
<path d="M2.83711 9.73641C2.83711 10.5272 3.4917 11.1819 4.28255 11.1819C5.07341 11.1819 5.728 10.5273 5.728 9.73641C5.728 8.94561 5.07341 8.29097 4.28255 8.29097C3.49155 8.29097 2.83711 8.94541 2.83711 9.73641ZM4.28255 10.0908C4.09155 10.0908 3.92795 9.92722 3.92795 9.73622C3.92795 9.54522 4.09156 9.38162 4.28255 9.38162C4.47355 9.38162 4.63715 9.54523 4.63715 9.73622C4.63696 9.92722 4.47336 10.0908 4.28255 10.0908Z" fill="white" fill-opacity="0.5"/>
<path d="M8.2363 11.1821C9.02711 11.1821 9.68175 10.5275 9.68175 9.73666C9.68175 8.94585 9.02716 8.29121 8.2363 8.29121C7.44545 8.29121 6.79086 8.9458 6.79086 9.73666C6.79086 10.5275 7.41808 11.1821 8.2363 11.1821ZM8.2363 9.38207C8.4273 9.38207 8.5909 9.54567 8.5909 9.73667C8.5909 9.92748 8.4273 10.0911 8.2363 10.0911C8.04531 10.0911 7.8817 9.92747 7.8817 9.73648C7.8817 9.54567 8.04531 9.38207 8.2363 9.38207Z" fill="white" fill-opacity="0.5"/>
<path d="M12.1631 11.1821C12.9539 11.1821 13.6085 10.5275 13.6085 9.73666C13.6085 8.94585 12.9539 8.29121 12.1631 8.29121C11.3722 8.29121 10.7176 8.9458 10.7176 9.73666C10.7176 10.5275 11.3721 11.1821 12.1631 11.1821ZM12.1631 9.38207C12.3541 9.38207 12.5177 9.54567 12.5177 9.73667C12.5177 9.92748 12.3539 10.0911 12.1631 10.0911C11.9721 10.0911 11.8085 9.92747 11.8085 9.73648C11.8085 9.54567 11.9721 9.38207 12.1631 9.38207Z" fill="white" fill-opacity="0.5"/>
<path d="M4.28255 12.2455C3.49174 12.2455 2.83711 12.9001 2.83711 13.6909C2.83711 14.4817 3.4917 15.1364 4.28255 15.1364C5.07341 15.1364 5.728 14.4818 5.728 13.6909C5.728 12.8999 5.07341 12.2455 4.28255 12.2455ZM4.28255 14.0455C4.09155 14.0455 3.92795 13.8819 3.92795 13.6909C3.92795 13.4999 4.09156 13.3363 4.28255 13.3363C4.47355 13.3363 4.63715 13.4999 4.63715 13.6909C4.63696 13.8817 4.47336 14.0455 4.28255 14.0455Z" fill="white" fill-opacity="0.5"/>
<path d="M8.23609 15.1364C9.02689 15.1364 9.68153 14.4818 9.68153 13.6909C9.68153 12.9001 9.02694 12.2455 8.23609 12.2455C7.44523 12.2455 6.79064 12.9001 6.79064 13.6909C6.79064 14.4817 7.41786 15.1364 8.23609 15.1364ZM8.23609 13.3363C8.42709 13.3363 8.59069 13.4999 8.59069 13.6909C8.59069 13.8819 8.42708 14.0455 8.23609 14.0455C8.04509 14.0455 7.88149 13.8819 7.88149 13.6909C7.88149 13.4999 8.04509 13.3363 8.23609 13.3363Z" fill="white" fill-opacity="0.5"/>
<path d="M4.9637 0.545549V1.47277H4.09088C1.82726 1.47277 0 3.30003 0 5.56365V13.9091C0 16.1727 1.82726 17.9999 4.09088 17.9999H12.409C14.6726 17.9999 16.4999 16.1727 16.4999 13.9091V5.59092C16.4999 3.3273 14.6726 1.50004 12.409 1.50004H11.509V0.545403C11.509 0.245395 11.2636 0 10.9636 0C10.6636 0 10.4182 0.245409 10.4182 0.545403V1.47262H8.78176V0.545403C8.78176 0.245395 8.53635 0 8.23636 0C7.93637 0 7.69096 0.245409 7.69096 0.545403V1.47262H6.05451V0.545403C6.05451 0.245395 5.8091 0 5.5091 0C5.20911 0 4.9637 0.245409 4.9637 0.545403V0.545549ZM5.5091 4.0638C5.80911 4.0638 6.05451 3.8184 6.05451 3.5184V2.59118H7.69096V3.5184C7.69096 3.81841 7.93637 4.0638 8.23636 4.0638C8.53635 4.0638 8.78176 3.8184 8.78176 3.5184V2.59118H10.4182V3.5184C10.4182 3.81841 10.6636 4.0638 10.9636 4.0638C11.2636 4.0638 11.509 3.8184 11.509 3.5184V2.59118H12.409C14.0726 2.59118 15.4091 3.92759 15.4091 5.59126V13.9094C15.4091 15.573 14.0727 16.9095 12.409 16.9095L4.09088 16.9093C2.42726 16.9093 1.0908 15.5729 1.0908 13.9092L1.09099 5.59107C1.09099 3.92745 2.4274 2.59099 4.09107 2.59099H4.9637V3.51821C4.9637 3.81841 5.20911 4.0638 5.5091 4.0638Z" fill="white" fill-opacity="0.5"/>
</svg>
